<?xml version="1.0" encoding="utf-8" standalone="no"?>
<!DOCTYPE svg PUBLIC "-//W3C//DTD SVG 1.1//EN"
  "http://www.w3.org/Graphics/SVG/1.1/DTD/svg11.dtd">
<!-- Created with matplotlib (https://matplotlib.org/) -->
<svg height="345.6pt" version="1.1" viewBox="0 0 460.8 345.6" width="460.8pt" xmlns="http://www.w3.org/2000/svg" xmlns:xlink="http://www.w3.org/1999/xlink">
 <metadata>
  <rdf:RDF xmlns:cc="http://creativecommons.org/ns#" xmlns:dc="http://purl.org/dc/elements/1.1/" xmlns:rdf="http://www.w3.org/1999/02/22-rdf-syntax-ns#">
   <cc:Work>
    <dc:type rdf:resource="http://purl.org/dc/dcmitype/StillImage"/>
    <dc:date>2020-10-03T16:23:34.795729</dc:date>
    <dc:format>image/svg+xml</dc:format>
    <dc:creator>
     <cc:Agent>
      <dc:title>Matplotlib v3.3.0, https://matplotlib.org/</dc:title>
     </cc:Agent>
    </dc:creator>
   </cc:Work>
  </rdf:RDF>
 </metadata>
 <defs>
  <style type="text/css">*{stroke-linecap:butt;stroke-linejoin:round;}</style>
 </defs>
 <g id="figure_1">
  <g id="patch_1">
   <path d="M 0 345.6 
L 460.8 345.6 
L 460.8 0 
L 0 0 
z
" style="fill:none;"/>
  </g>
  <g id="axes_1">
   <g id="patch_2">
    <path d="M 57.6 307.584 
L 414.72 307.584 
L 414.72 41.472 
L 57.6 41.472 
z
" style="fill:none;"/>
   </g>
   <g id="matplotlib.axis_1">
    <g id="xtick_1">
     <g id="line2d_1">
      <defs>
       <path d="M 0 0 
L 0 3.5 
" id="m94a37e3ab1" style="stroke:#000000;stroke-width:0.8;"/>
      </defs>
      <g>
       <use style="stroke:#000000;stroke-width:0.8;" x="57.6" xlink:href="#m94a37e3ab1" y="307.584"/>
      </g>
     </g>
     <g id="text_1">
      <!-- 0 -->
      <g transform="translate(54.41875 322.182437)scale(0.1 -0.1)">
       <defs>
        <path d="M 31.78125 66.40625 
Q 24.171875 66.40625 20.328125 58.90625 
Q 16.5 51.421875 16.5 36.375 
Q 16.5 21.390625 20.328125 13.890625 
Q 24.171875 6.390625 31.78125 6.390625 
Q 39.453125 6.390625 43.28125 13.890625 
Q 47.125 21.390625 47.125 36.375 
Q 47.125 51.421875 43.28125 58.90625 
Q 39.453125 66.40625 31.78125 66.40625 
z
M 31.78125 74.21875 
Q 44.046875 74.21875 50.515625 64.515625 
Q 56.984375 54.828125 56.984375 36.375 
Q 56.984375 17.96875 50.515625 8.265625 
Q 44.046875 -1.421875 31.78125 -1.421875 
Q 19.53125 -1.421875 13.0625 8.265625 
Q 6.59375 17.96875 6.59375 36.375 
Q 6.59375 54.828125 13.0625 64.515625 
Q 19.53125 74.21875 31.78125 74.21875 
z
" id="DejaVuSans-48"/>
       </defs>
       <use xlink:href="#DejaVuSans-48"/>
      </g>
     </g>
    </g>
    <g id="xtick_2">
     <g id="line2d_2">
      <g>
       <use style="stroke:#000000;stroke-width:0.8;" x="414.72" xlink:href="#m94a37e3ab1" y="307.584"/>
      </g>
     </g>
     <g id="text_2">
      <!-- 100 -->
      <g transform="translate(405.17625 322.182437)scale(0.1 -0.1)">
       <defs>
        <path d="M 12.40625 8.296875 
L 28.515625 8.296875 
L 28.515625 63.921875 
L 10.984375 60.40625 
L 10.984375 69.390625 
L 28.421875 72.90625 
L 38.28125 72.90625 
L 38.28125 8.296875 
L 54.390625 8.296875 
L 54.390625 0 
L 12.40625 0 
z
" id="DejaVuSans-49"/>
       </defs>
       <use xlink:href="#DejaVuSans-49"/>
       <use x="63.623047" xlink:href="#DejaVuSans-48"/>
       <use x="127.246094" xlink:href="#DejaVuSans-48"/>
      </g>
     </g>
    </g>
    <g id="text_3">
     <!-- Torque (N-m) -->
     <g transform="translate(203.60375 335.860562)scale(0.1 -0.1)">
      <defs>
       <path d="M -0.296875 72.90625 
L 61.375 72.90625 
L 61.375 64.59375 
L 35.5 64.59375 
L 35.5 0 
L 25.59375 0 
L 25.59375 64.59375 
L -0.296875 64.59375 
z
" id="DejaVuSans-84"/>
       <path d="M 30.609375 48.390625 
Q 23.390625 48.390625 19.1875 42.75 
Q 14.984375 37.109375 14.984375 27.296875 
Q 14.984375 17.484375 19.15625 11.84375 
Q 23.34375 6.203125 30.609375 6.203125 
Q 37.796875 6.203125 41.984375 11.859375 
Q 46.1875 17.53125 46.1875 27.296875 
Q 46.1875 37.015625 41.984375 42.703125 
Q 37.796875 48.390625 30.609375 48.390625 
z
M 30.609375 56 
Q 42.328125 56 49.015625 48.375 
Q 55.71875 40.765625 55.71875 27.296875 
Q 55.71875 13.875 49.015625 6.21875 
Q 42.328125 -1.421875 30.609375 -1.421875 
Q 18.84375 -1.421875 12.171875 6.21875 
Q 5.515625 13.875 5.515625 27.296875 
Q 5.515625 40.765625 12.171875 48.375 
Q 18.84375 56 30.609375 56 
z
" id="DejaVuSans-111"/>
       <path d="M 41.109375 46.296875 
Q 39.59375 47.171875 37.8125 47.578125 
Q 36.03125 48 33.890625 48 
Q 26.265625 48 22.1875 43.046875 
Q 18.109375 38.09375 18.109375 28.8125 
L 18.109375 0 
L 9.078125 0 
L 9.078125 54.6875 
L 18.109375 54.6875 
L 18.109375 46.1875 
Q 20.953125 51.171875 25.484375 53.578125 
Q 30.03125 56 36.53125 56 
Q 37.453125 56 38.578125 55.875 
Q 39.703125 55.765625 41.0625 55.515625 
z
" id="DejaVuSans-114"/>
       <path d="M 14.796875 27.296875 
Q 14.796875 17.390625 18.875 11.75 
Q 22.953125 6.109375 30.078125 6.109375 
Q 37.203125 6.109375 41.296875 11.75 
Q 45.40625 17.390625 45.40625 27.296875 
Q 45.40625 37.203125 41.296875 42.84375 
Q 37.203125 48.484375 30.078125 48.484375 
Q 22.953125 48.484375 18.875 42.84375 
Q 14.796875 37.203125 14.796875 27.296875 
z
M 45.40625 8.203125 
Q 42.578125 3.328125 38.25 0.953125 
Q 33.9375 -1.421875 27.875 -1.421875 
Q 17.96875 -1.421875 11.734375 6.484375 
Q 5.515625 14.40625 5.515625 27.296875 
Q 5.515625 40.1875 11.734375 48.09375 
Q 17.96875 56 27.875 56 
Q 33.9375 56 38.25 53.625 
Q 42.578125 51.265625 45.40625 46.390625 
L 45.40625 54.6875 
L 54.390625 54.6875 
L 54.390625 -20.796875 
L 45.40625 -20.796875 
z
" id="DejaVuSans-113"/>
       <path d="M 8.5 21.578125 
L 8.5 54.6875 
L 17.484375 54.6875 
L 17.484375 21.921875 
Q 17.484375 14.15625 20.5 10.265625 
Q 23.53125 6.390625 29.59375 6.390625 
Q 36.859375 6.390625 41.078125 11.03125 
Q 45.3125 15.671875 45.3125 23.6875 
L 45.3125 54.6875 
L 54.296875 54.6875 
L 54.296875 0 
L 45.3125 0 
L 45.3125 8.40625 
Q 42.046875 3.421875 37.71875 1 
Q 33.40625 -1.421875 27.6875 -1.421875 
Q 18.265625 -1.421875 13.375 4.4375 
Q 8.5 10.296875 8.5 21.578125 
z
M 31.109375 56 
z
" id="DejaVuSans-117"/>
       <path d="M 56.203125 29.59375 
L 56.203125 25.203125 
L 14.890625 25.203125 
Q 15.484375 15.921875 20.484375 11.0625 
Q 25.484375 6.203125 34.421875 6.203125 
Q 39.59375 6.203125 44.453125 7.46875 
Q 49.3125 8.734375 54.109375 11.28125 
L 54.109375 2.78125 
Q 49.265625 0.734375 44.1875 -0.34375 
Q 39.109375 -1.421875 33.890625 -1.421875 
Q 20.796875 -1.421875 13.15625 6.1875 
Q 5.515625 13.8125 5.515625 26.8125 
Q 5.515625 40.234375 12.765625 48.109375 
Q 20.015625 56 32.328125 56 
Q 43.359375 56 49.78125 48.890625 
Q 56.203125 41.796875 56.203125 29.59375 
z
M 47.21875 32.234375 
Q 47.125 39.59375 43.09375 43.984375 
Q 39.0625 48.390625 32.421875 48.390625 
Q 24.90625 48.390625 20.390625 44.140625 
Q 15.875 39.890625 15.1875 32.171875 
z
" id="DejaVuSans-101"/>
       <path id="DejaVuSans-32"/>
       <path d="M 31 75.875 
Q 24.46875 64.65625 21.28125 53.65625 
Q 18.109375 42.671875 18.109375 31.390625 
Q 18.109375 20.125 21.3125 9.0625 
Q 24.515625 -2 31 -13.1875 
L 23.1875 -13.1875 
Q 15.875 -1.703125 12.234375 9.375 
Q 8.59375 20.453125 8.59375 31.390625 
Q 8.59375 42.28125 12.203125 53.3125 
Q 15.828125 64.359375 23.1875 75.875 
z
" id="DejaVuSans-40"/>
       <path d="M 9.8125 72.90625 
L 23.09375 72.90625 
L 55.421875 11.921875 
L 55.421875 72.90625 
L 64.984375 72.90625 
L 64.984375 0 
L 51.703125 0 
L 19.390625 60.984375 
L 19.390625 0 
L 9.8125 0 
z
" id="DejaVuSans-78"/>
       <path d="M 4.890625 31.390625 
L 31.203125 31.390625 
L 31.203125 23.390625 
L 4.890625 23.390625 
z
" id="DejaVuSans-45"/>
       <path d="M 52 44.1875 
Q 55.375 50.25 60.0625 53.125 
Q 64.75 56 71.09375 56 
Q 79.640625 56 84.28125 50.015625 
Q 88.921875 44.046875 88.921875 33.015625 
L 88.921875 0 
L 79.890625 0 
L 79.890625 32.71875 
Q 79.890625 40.578125 77.09375 44.375 
Q 74.3125 48.1875 68.609375 48.1875 
Q 61.625 48.1875 57.5625 43.546875 
Q 53.515625 38.921875 53.515625 30.90625 
L 53.515625 0 
L 44.484375 0 
L 44.484375 32.71875 
Q 44.484375 40.625 41.703125 44.40625 
Q 38.921875 48.1875 33.109375 48.1875 
Q 26.21875 48.1875 22.15625 43.53125 
Q 18.109375 38.875 18.109375 30.90625 
L 18.109375 0 
L 9.078125 0 
L 9.078125 54.6875 
L 18.109375 54.6875 
L 18.109375 46.1875 
Q 21.1875 51.21875 25.484375 53.609375 
Q 29.78125 56 35.6875 56 
Q 41.65625 56 45.828125 52.96875 
Q 50 49.953125 52 44.1875 
z
" id="DejaVuSans-109"/>
       <path d="M 8.015625 75.875 
L 15.828125 75.875 
Q 23.140625 64.359375 26.78125 53.3125 
Q 30.421875 42.28125 30.421875 31.390625 
Q 30.421875 20.453125 26.78125 9.375 
Q 23.140625 -1.703125 15.828125 -13.1875 
L 8.015625 -13.1875 
Q 14.5 -2 17.703125 9.0625 
Q 20.90625 20.125 20.90625 31.390625 
Q 20.90625 42.671875 17.703125 53.65625 
Q 14.5 64.65625 8.015625 75.875 
z
" id="DejaVuSans-41"/>
      </defs>
      <use xlink:href="#DejaVuSans-84"/>
      <use x="44.083984" xlink:href="#DejaVuSans-111"/>
      <use x="105.265625" xlink:href="#DejaVuSans-114"/>
      <use x="144.628906" xlink:href="#DejaVuSans-113"/>
      <use x="208.105469" xlink:href="#DejaVuSans-117"/>
      <use x="271.484375" xlink:href="#DejaVuSans-101"/>
      <use x="333.007812" xlink:href="#DejaVuSans-32"/>
      <use x="364.794922" xlink:href="#DejaVuSans-40"/>
      <use x="403.808594" xlink:href="#DejaVuSans-78"/>
      <use x="478.613281" xlink:href="#DejaVuSans-45"/>
      <use x="514.697266" xlink:href="#DejaVuSans-109"/>
      <use x="612.109375" xlink:href="#DejaVuSans-41"/>
     </g>
    </g>
   </g>
   <g id="matplotlib.axis_2">
    <g id="ytick_1">
     <g id="line2d_3">
      <defs>
       <path d="M 0 0 
L -3.5 0 
" id="m5fcd206cc0" style="stroke:#000000;stroke-width:0.8;"/>
      </defs>
      <g>
       <use style="stroke:#000000;stroke-width:0.8;" x="57.6" xlink:href="#m5fcd206cc0" y="307.584"/>
      </g>
     </g>
     <g id="text_4">
      <!-- 0 -->
      <g transform="translate(44.2375 311.383219)scale(0.1 -0.1)">
       <use xlink:href="#DejaVuSans-48"/>
      </g>
     </g>
    </g>
    <g id="ytick_2">
     <g id="line2d_4">
      <g>
       <use style="stroke:#000000;stroke-width:0.8;" x="57.6" xlink:href="#m5fcd206cc0" y="41.472"/>
      </g>
     </g>
     <g id="text_5">
      <!-- 5 -->
      <g transform="translate(44.2375 45.271219)scale(0.1 -0.1)">
       <defs>
        <path d="M 10.796875 72.90625 
L 49.515625 72.90625 
L 49.515625 64.59375 
L 19.828125 64.59375 
L 19.828125 46.734375 
Q 21.96875 47.46875 24.109375 47.828125 
Q 26.265625 48.1875 28.421875 48.1875 
Q 40.625 48.1875 47.75 41.5 
Q 54.890625 34.8125 54.890625 23.390625 
Q 54.890625 11.625 47.5625 5.09375 
Q 40.234375 -1.421875 26.90625 -1.421875 
Q 22.3125 -1.421875 17.546875 -0.640625 
Q 12.796875 0.140625 7.71875 1.703125 
L 7.71875 11.625 
Q 12.109375 9.234375 16.796875 8.0625 
Q 21.484375 6.890625 26.703125 6.890625 
Q 35.15625 6.890625 40.078125 11.328125 
Q 45.015625 15.765625 45.015625 23.390625 
Q 45.015625 31 40.078125 35.4375 
Q 35.15625 39.890625 26.703125 39.890625 
Q 22.75 39.890625 18.8125 39.015625 
Q 14.890625 38.140625 10.796875 36.28125 
z
" id="DejaVuSans-53"/>
       </defs>
       <use xlink:href="#DejaVuSans-53"/>
      </g>
     </g>
    </g>
    <g id="text_6">
     <!--  -->
     <g transform="translate(15.762188 174.528)rotate(-90)scale(0.1 -0.1)"/>
     <!--  Speed (rad/s²)  -->
     <g transform="translate(26.96 213.460031)rotate(-90)scale(0.1 -0.1)">
      <defs>
       <path d="M 53.515625 70.515625 
L 53.515625 60.890625 
Q 47.90625 63.578125 42.921875 64.890625 
Q 37.9375 66.21875 33.296875 66.21875 
Q 25.25 66.21875 20.875 63.09375 
Q 16.5 59.96875 16.5 54.203125 
Q 16.5 49.359375 19.40625 46.890625 
Q 22.3125 44.4375 30.421875 42.921875 
L 36.375 41.703125 
Q 47.40625 39.59375 52.65625 34.296875 
Q 57.90625 29 57.90625 20.125 
Q 57.90625 9.515625 50.796875 4.046875 
Q 43.703125 -1.421875 29.984375 -1.421875 
Q 24.8125 -1.421875 18.96875 -0.25 
Q 13.140625 0.921875 6.890625 3.21875 
L 6.890625 13.375 
Q 12.890625 10.015625 18.65625 8.296875 
Q 24.421875 6.59375 29.984375 6.59375 
Q 38.421875 6.59375 43.015625 9.90625 
Q 47.609375 13.234375 47.609375 19.390625 
Q 47.609375 24.75 44.3125 27.78125 
Q 41.015625 30.8125 33.5 32.328125 
L 27.484375 33.5 
Q 16.453125 35.6875 11.515625 40.375 
Q 6.59375 45.0625 6.59375 53.421875 
Q 6.59375 63.09375 13.40625 68.65625 
Q 20.21875 74.21875 32.171875 74.21875 
Q 37.3125 74.21875 42.625 73.28125 
Q 47.953125 72.359375 53.515625 70.515625 
z
" id="DejaVuSans-83"/>
       <path d="M 18.109375 8.203125 
L 18.109375 -20.796875 
L 9.078125 -20.796875 
L 9.078125 54.6875 
L 18.109375 54.6875 
L 18.109375 46.390625 
Q 20.953125 51.265625 25.265625 53.625 
Q 29.59375 56 35.59375 56 
Q 45.5625 56 51.78125 48.09375 
Q 58.015625 40.1875 58.015625 27.296875 
Q 58.015625 14.40625 51.78125 6.484375 
Q 45.5625 -1.421875 35.59375 -1.421875 
Q 29.59375 -1.421875 25.265625 0.953125 
Q 20.953125 3.328125 18.109375 8.203125 
z
M 48.6875 27.296875 
Q 48.6875 37.203125 44.609375 42.84375 
Q 40.53125 48.484375 33.40625 48.484375 
Q 26.265625 48.484375 22.1875 42.84375 
Q 18.109375 37.203125 18.109375 27.296875 
Q 18.109375 17.390625 22.1875 11.75 
Q 26.265625 6.109375 33.40625 6.109375 
Q 40.53125 6.109375 44.609375 11.75 
Q 48.6875 17.390625 48.6875 27.296875 
z
" id="DejaVuSans-112"/>
       <path d="M 45.40625 46.390625 
L 45.40625 75.984375 
L 54.390625 75.984375 
L 54.390625 0 
L 45.40625 0 
L 45.40625 8.203125 
Q 42.578125 3.328125 38.25 0.953125 
Q 33.9375 -1.421875 27.875 -1.421875 
Q 17.96875 -1.421875 11.734375 6.484375 
Q 5.515625 14.40625 5.515625 27.296875 
Q 5.515625 40.1875 11.734375 48.09375 
Q 17.96875 56 27.875 56 
Q 33.9375 56 38.25 53.625 
Q 42.578125 51.265625 45.40625 46.390625 
z
M 14.796875 27.296875 
Q 14.796875 17.390625 18.875 11.75 
Q 22.953125 6.109375 30.078125 6.109375 
Q 37.203125 6.109375 41.296875 11.75 
Q 45.40625 17.390625 45.40625 27.296875 
Q 45.40625 37.203125 41.296875 42.84375 
Q 37.203125 48.484375 30.078125 48.484375 
Q 22.953125 48.484375 18.875 42.84375 
Q 14.796875 37.203125 14.796875 27.296875 
z
" id="DejaVuSans-100"/>
       <path d="M 34.28125 27.484375 
Q 23.390625 27.484375 19.1875 25 
Q 14.984375 22.515625 14.984375 16.5 
Q 14.984375 11.71875 18.140625 8.90625 
Q 21.296875 6.109375 26.703125 6.109375 
Q 34.1875 6.109375 38.703125 11.40625 
Q 43.21875 16.703125 43.21875 25.484375 
L 43.21875 27.484375 
z
M 52.203125 31.203125 
L 52.203125 0 
L 43.21875 0 
L 43.21875 8.296875 
Q 40.140625 3.328125 35.546875 0.953125 
Q 30.953125 -1.421875 24.3125 -1.421875 
Q 15.921875 -1.421875 10.953125 3.296875 
Q 6 8.015625 6 15.921875 
Q 6 25.140625 12.171875 29.828125 
Q 18.359375 34.515625 30.609375 34.515625 
L 43.21875 34.515625 
L 43.21875 35.40625 
Q 43.21875 41.609375 39.140625 45 
Q 35.0625 48.390625 27.6875 48.390625 
Q 23 48.390625 18.546875 47.265625 
Q 14.109375 46.140625 10.015625 43.890625 
L 10.015625 52.203125 
Q 14.9375 54.109375 19.578125 55.046875 
Q 24.21875 56 28.609375 56 
Q 40.484375 56 46.34375 49.84375 
Q 52.203125 43.703125 52.203125 31.203125 
z
" id="DejaVuSans-97"/>
       <path d="M 25.390625 72.90625 
L 33.6875 72.90625 
L 8.296875 -9.28125 
L 0 -9.28125 
z
" id="DejaVuSans-47"/>
       <path d="M 44.28125 53.078125 
L 44.28125 44.578125 
Q 40.484375 46.53125 36.375 47.5 
Q 32.28125 48.484375 27.875 48.484375 
Q 21.1875 48.484375 17.84375 46.4375 
Q 14.5 44.390625 14.5 40.28125 
Q 14.5 37.15625 16.890625 35.375 
Q 19.28125 33.59375 26.515625 31.984375 
L 29.59375 31.296875 
Q 39.15625 29.25 43.1875 25.515625 
Q 47.21875 21.78125 47.21875 15.09375 
Q 47.21875 7.46875 41.1875 3.015625 
Q 35.15625 -1.421875 24.609375 -1.421875 
Q 20.21875 -1.421875 15.453125 -0.5625 
Q 10.6875 0.296875 5.421875 2 
L 5.421875 11.28125 
Q 10.40625 8.6875 15.234375 7.390625 
Q 20.0625 6.109375 24.8125 6.109375 
Q 31.15625 6.109375 34.5625 8.28125 
Q 37.984375 10.453125 37.984375 14.40625 
Q 37.984375 18.0625 35.515625 20.015625 
Q 33.0625 21.96875 24.703125 23.78125 
L 21.578125 24.515625 
Q 13.234375 26.265625 9.515625 29.90625 
Q 5.8125 33.546875 5.8125 39.890625 
Q 5.8125 47.609375 11.28125 51.796875 
Q 16.75 56 26.8125 56 
Q 31.78125 56 36.171875 55.265625 
Q 40.578125 54.546875 44.28125 53.078125 
z
" id="DejaVuSans-115"/>
       <path d="M 13.09375 38.1875 
L 33.796875 38.1875 
L 33.796875 32.625 
L 4.59375 32.625 
L 4.59375 37.984375 
Q 6.25 39.5 9.328125 42.234375 
Q 26.125 57.125 26.125 61.71875 
Q 26.125 64.9375 23.578125 66.90625 
Q 21.046875 68.890625 16.890625 68.890625 
Q 14.359375 68.890625 11.375 68.03125 
Q 8.40625 67.1875 4.890625 65.484375 
L 4.890625 71.484375 
Q 8.640625 72.859375 11.890625 73.53125 
Q 15.140625 74.21875 17.921875 74.21875 
Q 25 74.21875 29.25 71 
Q 33.5 67.78125 33.5 62.5 
Q 33.5 55.71875 17.328125 41.84375 
Q 14.59375 39.5 13.09375 38.1875 
z
" id="DejaVuSans-178"/>
      </defs>
      <use xlink:href="#DejaVuSans-32"/>
      <use x="31.787109" xlink:href="#DejaVuSans-83"/>
      <use x="95.263672" xlink:href="#DejaVuSans-112"/>
      <use x="158.740234" xlink:href="#DejaVuSans-101"/>
      <use x="220.263672" xlink:href="#DejaVuSans-101"/>
      <use x="281.787109" xlink:href="#DejaVuSans-100"/>
      <use x="345.263672" xlink:href="#DejaVuSans-32"/>
      <use x="377.050781" xlink:href="#DejaVuSans-40"/>
      <use x="416.064453" xlink:href="#DejaVuSans-114"/>
      <use x="457.177734" xlink:href="#DejaVuSans-97"/>
      <use x="518.457031" xlink:href="#DejaVuSans-100"/>
      <use x="581.933594" xlink:href="#DejaVuSans-47"/>
      <use x="615.625" xlink:href="#DejaVuSans-115"/>
      <use x="667.724609" xlink:href="#DejaVuSans-178"/>
      <use x="707.8125" xlink:href="#DejaVuSans-41"/>
      <use x="746.826172" xlink:href="#DejaVuSans-32"/>
     </g>
     <!--  -->
     <g transform="translate(38.157813 174.528)rotate(-90)scale(0.1 -0.1)"/>
    </g>
   </g>
   <g id="line2d_5">
    <path clip-path="url(#pc549d8bc21)" d="M 104.750753 304.707382 
L 102.620087 301.563284 
L 100.217196 298.485446 
L 98.21351 296.23597 
L 96.019254 294.051498 
L 93.619268 291.945505 
L 91.010583 289.931465 
L 88.199231 288.022853 
L 85.191284 286.233139 
L 81.992801 284.574665 
L 78.60983 283.056003 
L 75.048412 281.684762 
L 71.316917 280.468551 
L 67.437907 279.414981 
L 63.441465 278.531661 
L 59.357883 277.826481 
L 57.982562 277.632834 
L 58.59795 277.46068 
L 62.759402 277.077874 
L 66.927123 276.905403 
L 71.073517 276.955937 
L 75.179052 277.242145 
L 79.224268 277.776696 
L 83.189545 278.571178 
L 87.055235 279.624054 
L 90.801657 280.923785 
L 94.409083 282.458454 
L 97.858833 284.216144 
L 101.136015 286.184937 
L 104.226594 288.352915 
L 107.116504 290.705965 
L 109.79165 293.220548 
L 112.237906 295.869959 
L 114.439763 298.627475 
L 116.372327 301.466374 
L 118.006264 304.359934 
L 119.312171 307.281627 
L 119.669488 306.91015 
L 120.260589 304.957132 
L 120.679689 303.006129 
L 120.918027 301.060468 
L 120.966932 299.123481 
L 120.821123 297.198498 
L 120.483027 295.288847 
L 119.957007 293.39786 
L 119.247451 291.528866 
L 118.358752 289.685197 
L 117.295304 287.870221 
L 116.061506 286.087012 
L 114.661762 284.338492 
L 112.260637 281.787151 
L 109.513091 279.330305 
L 106.449212 276.977821 
L 103.106244 274.739565 
L 99.521702 272.625754 
L 95.73317 270.653007 
L 91.778306 268.844602 
L 87.694829 267.22423 
L 83.516683 265.815583 
L 79.26615 264.642352 
L 74.962876 263.728227 
L 70.626541 263.093242 
L 66.276862 262.738069 
L 61.933588 262.655594 
L 57.616257 262.838634 
L 61.856943 263.280007 
L 66.068854 263.972529 
L 70.202406 264.908921 
L 74.240499 266.077489 
L 78.166006 267.458877 
L 81.961784 269.032778 
L 85.609333 270.778883 
L 89.080358 272.676885 
L 92.342436 274.706476 
L 95.363061 276.847481 
L 98.109692 279.083114 
L 100.549749 281.400049 
L 102.651209 283.785107 
L 104.397409 286.225109 
L 105.795426 288.706875 
L 106.855296 291.217233 
L 107.587084 293.743808 
L 108.000876 296.275486 
L 108.106789 298.801218 
L 107.917658 301.309951 
L 107.460316 303.790636 
L 106.768373 306.23222 
L 106.491436 307.035482 
L 106.193445 307.335222 
L 105.185684 304.98356 
L 103.623384 301.963612 
L 101.88483 299.110591 
L 100.046127 296.462471 
L 97.70904 293.498241 
L 95.017331 290.509515 
L 90.789686 286.269746 
L 89.406787 284.730314 
L 89.071451 284.06757 
L 89.065636 283.635221 
L 89.290447 283.234535 
L 89.765939 282.844089 
L 90.824617 282.302828 
L 92.897482 281.524042 
L 106.58442 276.789833 
L 112.332923 274.474735 
L 118.706921 271.659379 
L 124.145003 269.022802 
L 129.782765 266.023858 
L 134.085745 263.524285 
L 138.408804 260.800585 
L 142.713548 257.844192 
L 146.96475 254.646538 
L 151.127556 251.199057 
L 155.1671 247.494243 
L 159.048528 243.536893 
L 162.736998 239.340967 
L 166.197799 234.920767 
L 169.40299 230.290597 
L 171.390069 227.094229 
L 173.252621 223.815135 
L 174.986568 220.457554 
L 176.587832 217.026108 
L 178.052333 213.527597 
L 179.375987 209.969908 
L 180.55471 206.360946 
L 181.584429 202.708617 
L 182.461166 199.020824 
L 183.180546 195.305472 
L 183.738231 191.570467 
L 184.129889 187.823712 
L 184.351186 184.073109 
L 184.397786 180.326152 
L 184.265347 176.589428 
L 183.949525 172.869364 
L 183.445974 169.172391 
L 182.750329 165.504937 
L 181.859679 161.873431 
L 180.776815 158.284302 
L 179.506232 154.74398 
L 178.052445 151.258893 
L 176.419974 147.835462 
L 174.613336 144.479457 
L 172.637051 141.194292 
L 170.495643 137.982681 
L 168.193636 134.847338 
L 165.735591 131.790976 
L 163.126904 128.816306 
L 160.375416 125.926042 
L 157.489933 123.122897 
L 154.479279 120.409583 
L 149.747918 116.513856 
L 144.784609 112.83469 
L 139.619196 109.381189 
L 134.281552 106.16259 
L 128.799993 103.188127 
L 123.198552 100.467037 
L 117.500537 98.008555 
L 111.729267 95.82128 
L 105.908073 93.905745 
L 100.060292 92.257698 
L 94.209284 90.872839 
L 88.374545 89.746865 
L 82.569211 88.875473 
L 76.805822 88.254327 
L 71.096908 87.877364 
L 65.454995 87.735432 
L 59.892592 87.818984 
L 58.058257 87.895292 
L 60.778521 88.118472 
L 66.14854 88.624349 
L 71.407615 89.327067 
L 76.545894 90.217112 
L 81.553547 91.28641 
L 86.420763 92.528418 
L 91.137535 93.936653 
L 95.693402 95.504633 
L 100.083667 97.225877 
L 104.30525 99.093898 
L 108.355097 101.101974 
L 112.230172 103.243889 
L 115.927468 105.513775 
L 119.444454 107.905765 
L 122.782381 110.413991 
L 125.944877 113.032587 
L 128.935653 115.755705 
L 131.75843 118.578689 
L 134.416941 121.498733 
L 136.914936 124.513194 
L 139.256283 127.619427 
L 141.443655 130.814791 
L 143.479092 134.096641 
L 145.364637 137.4615 
L 147.649077 142.064933 
L 149.675578 146.784639 
L 151.450698 151.601639 
L 152.982728 156.496955 
L 154.279699 161.451938 
L 155.349624 166.451772 
L 156.200529 171.484309 
L 156.840008 176.537466 
L 157.272074 181.59916 
L 157.499692 186.657497 
L 157.525807 191.701948 
L 157.353383 196.722644 
L 156.990542 201.709725 
L 156.297246 207.881282 
L 155.373148 213.967432 
L 154.256255 219.957586 
L 152.710465 227.006632 
L 150.980975 233.889605 
L 148.78295 241.693197 
L 146.10539 250.2929 
L 142.968367 259.537017 
L 139.081808 270.254591 
L 134.500332 282.22017 
L 129.942262 293.518453 
L 126.06119 302.600985 
L 123.885179 307.377298 
L 123.514168 307.006734 
L 120.822005 301.621049 
L 118.345231 297.15635 
L 115.678369 292.843383 
L 113.290984 289.374306 
L 110.736655 286.029385 
L 108.000451 282.81887 
L 105.069363 279.75321 
L 101.930619 276.848906 
L 99.261623 274.657366 
L 96.449962 272.596269 
L 93.501442 270.677795 
L 90.422705 268.913776 
L 87.220401 267.313357 
L 83.901179 265.884318 
L 80.471502 264.634421 
L 76.938445 263.57143 
L 73.309343 262.703065 
L 69.591552 262.036693 
L 65.792599 261.579497 
L 61.926073 261.338654 
L 58.014355 261.321345 
L 58.167924 261.352775 
L 62.103564 261.621952 
L 66.032223 262.116919 
L 69.931113 262.832576 
L 73.782486 263.763819 
L 77.572119 264.905548 
L 81.285881 266.253049 
L 84.909616 267.802329 
L 88.429172 269.549465 
L 91.830764 271.490534 
L 95.100932 273.621596 
L 98.226218 275.935678 
L 101.19316 278.417956 
L 103.990078 281.052202 
L 106.619854 283.82219 
L 109.093464 286.711718 
L 111.982842 290.470706 
L 114.667367 294.375359 
L 117.165439 298.407512 
L 119.48996 302.549005 
L 122.067743 307.530195 
L 124.435077 302.340186 
L 126.980526 296.197522 
L 130.048489 288.198478 
L 134.366523 276.290533 
L 139.023233 262.743899 
L 144.483259 246.111506 
L 147.187618 237.255039 
L 148.733991 231.520021 
L 150.08765 225.640608 
L 150.990321 220.840911 
L 151.706588 215.962168 
L 152.21345 211.010351 
L 152.487917 205.991577 
L 152.507494 200.91202 
L 152.260856 195.777854 
L 151.747258 190.595254 
L 150.966169 185.373432 
L 149.917072 180.139355 
L 148.599741 174.926986 
L 147.021721 169.770329 
L 145.201285 164.70339 
L 143.157725 159.758958 
L 140.910337 154.963432 
L 138.477947 150.340928 
L 135.872633 145.915551 
L 133.101459 141.711407 
L 130.171382 137.748048 
L 127.089367 134.026536 
L 123.863383 130.542981 
L 120.523702 127.293486 
L 117.125825 124.274154 
L 112.883657 120.813456 
L 107.947426 117.080075 
L 91.608214 105.002579 
L 87.641248 101.573159 
L 84.849176 98.857769 
L 81.294467 95.367369 
L 78.16449 92.669945 
L 73.796615 89.187862 
L 70.390971 86.741452 
L 67.210928 84.739433 
L 64.395259 83.218773 
L 61.300444 81.825187 
L 58.775249 80.897803 
L 57.891888 80.615887 
L 58.212717 80.34907 
L 61.053799 79.648156 
L 64.085114 79.115346 
L 67.305805 78.774422 
L 70.715015 78.638452 
L 74.31188 78.706971 
L 78.095546 78.978409 
L 82.061599 79.451197 
L 86.188365 80.123767 
L 90.448293 80.994549 
L 94.813817 82.061959 
L 99.257395 83.326605 
L 103.751508 84.791479 
L 108.268772 86.459655 
L 112.77993 88.334212 
L 117.251612 90.418223 
L 121.650072 92.714751 
L 125.941605 95.224777 
L 130.092546 97.943061 
L 134.069262 100.862964 
L 137.842335 103.977843 
L 141.407381 107.281058 
L 144.771265 110.765967 
L 147.94099 114.425904 
L 150.923543 118.250327 
L 153.725896 122.222362 
L 156.355212 126.324598 
L 158.822608 130.539623 
L 161.882304 136.305013 
L 164.704579 142.198907 
L 167.317347 148.18129 
L 170.331292 155.720156 
L 174.216168 166.241078 
L 179.089213 179.426162 
L 181.958695 186.574569 
L 185.616296 195.041585 
L 190.105082 204.848008 
L 199.632918 224.991294 
L 204.999388 235.787363 
L 210.18055 245.709169 
L 224.254356 272.296007 
L 230.777522 285.148491 
L 236.213939 296.325857 
L 241.445055 307.362501 
L 244.403501 300.343163 
L 247.174903 293.215938 
L 249.717851 285.972972 
L 251.992997 278.606409 
L 253.340487 273.622823 
L 254.538125 268.578487 
L 255.573535 263.471399 
L 256.434333 258.303424 
L 257.108133 253.079391 
L 257.582541 247.804263 
L 257.845161 242.483003 
L 257.884156 237.120573 
L 257.699371 231.721936 
L 257.302298 226.292054 
L 256.704988 220.835889 
L 255.919499 215.358406 
L 254.957891 209.864798 
L 253.832232 204.362854 
L 251.862556 196.116509 
L 249.591689 187.908895 
L 247.056912 179.774711 
L 244.260862 171.748658 
L 241.187834 163.865433 
L 238.977472 158.706399 
L 236.632309 153.635165 
L 234.147663 148.659543 
L 231.518853 143.787485 
L 228.741196 139.026944 
L 225.810052 134.385872 
L 222.72373 129.87222 
L 219.487314 125.49394 
L 216.107083 121.258986 
L 212.589327 117.175308 
L 208.940338 113.250848 
L 205.166414 109.490853 
L 201.273859 105.890591 
L 197.268977 102.44289 
L 193.158082 99.140577 
L 188.947544 95.976477 
L 184.645633 92.94342 
L 178.048512 88.623845 
L 171.317642 84.558765 
L 164.497333 80.724171 
L 157.631928 77.110181 
L 150.765799 73.726822 
L 143.943317 70.585523 
L 137.203538 67.697714 
L 130.576414 65.074824 
L 124.091318 62.728284 
L 117.777635 60.667437 
L 111.664759 58.888409 
L 105.78209 57.381727 
L 100.158701 56.13789 
L 94.807372 55.147399 
L 89.716853 54.400755 
L 84.873888 53.888403 
L 80.265211 53.597533 
L 75.877542 53.509194 
L 71.697589 53.603684 
L 66.427957 53.980011 
L 61.518057 54.599628 
L 58.089823 55.195899 
L 58.201986 55.416101 
L 62.301958 56.393926 
L 65.951659 57.510903 
L 69.126066 58.745591 
L 71.828291 60.07655 
L 74.071558 61.482354 
L 75.460798 62.573673 
L 76.604943 63.688039 
L 77.509796 64.817723 
L 78.185147 65.954998 
L 78.646637 67.092136 
L 78.910549 68.221421 
L 78.993169 69.336086 
L 78.849473 70.791858 
L 78.451134 72.203886 
L 77.832694 73.56241 
L 77.016688 74.857669 
L 76.02383 76.080202 
L 74.565618 77.495314 
L 72.904601 78.773536 
L 71.083094 79.902793 
L 69.142285 80.872232 
L 66.713713 81.821307 
L 64.23866 82.538473 
L 61.762284 83.025783 
L 59.32359 83.289475 
L 57.738266 83.347129 
L 61.540679 83.053369 
L 63.524353 82.642291 
L 65.288562 82.084548 
L 66.812248 81.405002 
L 68.080708 80.625233 
L 69.078309 79.760579 
L 69.785129 78.825647 
L 70.137989 78.004962 
L 70.264286 77.16275 
L 70.15293 76.315865 
L 69.795903 75.481161 
L 69.186552 74.674842 
L 68.31819 73.909644 
L 67.174843 73.197172 
L 65.71924 72.549035 
L 63.910772 71.979439 
L 61.708986 71.508843 
L 59.084877 71.158591 
L 57.894367 71.015084 
L 61.201673 70.902129 
L 64.937091 70.967099 
L 69.097094 71.232888 
L 73.656809 71.722351 
L 78.585712 72.461702 
L 83.85339 73.500142 
L 88.290045 74.585843 
L 92.899091 75.930881 
L 97.652889 77.565342 
L 102.5238 79.5121 
L 107.484222 81.781894 
L 112.506323 84.384204 
L 117.560354 87.328506 
L 121.353575 89.766858 
L 125.134912 92.404313 
L 128.891603 95.236243 
L 132.610901 98.257139 
L 136.278643 101.461493 
L 139.871082 104.8438 
L 143.359822 108.398551 
L 146.716444 112.120167 
L 149.912558 116.001322 
L 152.919807 120.032436 
L 155.709959 124.203746 
L 158.260355 128.505488 
L 160.559847 132.927895 
L 162.599141 137.461203 
L 164.368956 142.095606 
L 165.860022 146.820665 
L 167.063082 151.625471 
L 167.970005 156.499105 
L 168.584932 161.43065 
L 168.920999 166.409189 
L 168.991625 171.42376 
L 168.810212 176.460188 
L 168.390151 181.496983 
L 167.744811 186.511438 
L 166.887086 191.480844 
L 165.831009 196.382494 
L 164.591809 201.19368 
L 163.184723 205.892413 
L 161.624969 210.464718 
L 159.927747 214.902547 
L 157.477014 220.596924 
L 154.843332 226.01973 
L 152.061538 231.1524 
L 149.166571 235.984372 
L 146.193313 240.534112 
L 142.418734 245.86391 
L 137.910677 251.802388 
L 128.393708 264.156159 
L 125.041194 268.982703 
L 122.590372 272.866219 
L 120.436362 276.662286 
L 118.560685 280.40526 
L 116.581665 284.875045 
L 109.135031 302.488446 
L 107.089155 306.478419 
L 106.647175 307.277198 
L 106.192953 307.092763 
L 105.245336 305.500624 
L 105.245336 305.500624 
" style="fill:none;stroke:#087f23;stroke-linecap:square;stroke-width:1.5;"/>
   </g>
   <g id="patch_3">
    <path d="M 57.6 307.584 
L 57.6 41.472 
" style="fill:none;stroke:#000000;stroke-linecap:square;stroke-linejoin:miter;stroke-width:0.8;"/>
   </g>
   <g id="patch_4">
    <path d="M 414.72 307.584 
L 414.72 41.472 
" style="fill:none;stroke:#000000;stroke-linecap:square;stroke-linejoin:miter;stroke-width:0.8;"/>
   </g>
   <g id="patch_5">
    <path d="M 57.6 307.584 
L 414.72 307.584 
" style="fill:none;stroke:#000000;stroke-linecap:square;stroke-linejoin:miter;stroke-width:0.8;"/>
   </g>
   <g id="patch_6">
    <path d="M 57.6 41.472 
L 414.72 41.472 
" style="fill:none;stroke:#000000;stroke-linecap:square;stroke-linejoin:miter;stroke-width:0.8;"/>
   </g>
   <g id="text_7">
    <!--  -->
    <g transform="translate(236.16 8.59725)scale(0.12 -0.12)"/>
    <!--  Downhill — Knee Drive  -->
    <g transform="translate(163.704375 22.034625)scale(0.12 -0.12)">
     <defs>
      <path d="M 19.671875 64.796875 
L 19.671875 8.109375 
L 31.59375 8.109375 
Q 46.6875 8.109375 53.6875 14.9375 
Q 60.6875 21.78125 60.6875 36.53125 
Q 60.6875 51.171875 53.6875 57.984375 
Q 46.6875 64.796875 31.59375 64.796875 
z
M 9.8125 72.90625 
L 30.078125 72.90625 
Q 51.265625 72.90625 61.171875 64.09375 
Q 71.09375 55.28125 71.09375 36.53125 
Q 71.09375 17.671875 61.125 8.828125 
Q 51.171875 0 30.078125 0 
L 9.8125 0 
z
" id="DejaVuSans-68"/>
      <path d="M 4.203125 54.6875 
L 13.1875 54.6875 
L 24.421875 12.015625 
L 35.59375 54.6875 
L 46.1875 54.6875 
L 57.421875 12.015625 
L 68.609375 54.6875 
L 77.59375 54.6875 
L 63.28125 0 
L 52.6875 0 
L 40.921875 44.828125 
L 29.109375 0 
L 18.5 0 
z
" id="DejaVuSans-119"/>
      <path d="M 54.890625 33.015625 
L 54.890625 0 
L 45.90625 0 
L 45.90625 32.71875 
Q 45.90625 40.484375 42.875 44.328125 
Q 39.84375 48.1875 33.796875 48.1875 
Q 26.515625 48.1875 22.3125 43.546875 
Q 18.109375 38.921875 18.109375 30.90625 
L 18.109375 0 
L 9.078125 0 
L 9.078125 54.6875 
L 18.109375 54.6875 
L 18.109375 46.1875 
Q 21.34375 51.125 25.703125 53.5625 
Q 30.078125 56 35.796875 56 
Q 45.21875 56 50.046875 50.171875 
Q 54.890625 44.34375 54.890625 33.015625 
z
" id="DejaVuSans-110"/>
      <path d="M 54.890625 33.015625 
L 54.890625 0 
L 45.90625 0 
L 45.90625 32.71875 
Q 45.90625 40.484375 42.875 44.328125 
Q 39.84375 48.1875 33.796875 48.1875 
Q 26.515625 48.1875 22.3125 43.546875 
Q 18.109375 38.921875 18.109375 30.90625 
L 18.109375 0 
L 9.078125 0 
L 9.078125 75.984375 
L 18.109375 75.984375 
L 18.109375 46.1875 
Q 21.34375 51.125 25.703125 53.5625 
Q 30.078125 56 35.796875 56 
Q 45.21875 56 50.046875 50.171875 
Q 54.890625 44.34375 54.890625 33.015625 
z
" id="DejaVuSans-104"/>
      <path d="M 9.421875 54.6875 
L 18.40625 54.6875 
L 18.40625 0 
L 9.421875 0 
z
M 9.421875 75.984375 
L 18.40625 75.984375 
L 18.40625 64.59375 
L 9.421875 64.59375 
z
" id="DejaVuSans-105"/>
      <path d="M 9.421875 75.984375 
L 18.40625 75.984375 
L 18.40625 0 
L 9.421875 0 
z
" id="DejaVuSans-108"/>
      <path d="M 4.890625 30.90625 
L 95.125 30.90625 
L 95.125 23.875 
L 4.890625 23.875 
z
" id="DejaVuSans-8212"/>
      <path d="M 9.8125 72.90625 
L 19.671875 72.90625 
L 19.671875 42.09375 
L 52.390625 72.90625 
L 65.09375 72.90625 
L 28.90625 38.921875 
L 67.671875 0 
L 54.6875 0 
L 19.671875 35.109375 
L 19.671875 0 
L 9.8125 0 
z
" id="DejaVuSans-75"/>
      <path d="M 2.984375 54.6875 
L 12.5 54.6875 
L 29.59375 8.796875 
L 46.6875 54.6875 
L 56.203125 54.6875 
L 35.6875 0 
L 23.484375 0 
z
" id="DejaVuSans-118"/>
     </defs>
     <use xlink:href="#DejaVuSans-32"/>
     <use x="31.787109" xlink:href="#DejaVuSans-68"/>
     <use x="108.789062" xlink:href="#DejaVuSans-111"/>
     <use x="169.970703" xlink:href="#DejaVuSans-119"/>
     <use x="251.757812" xlink:href="#DejaVuSans-110"/>
     <use x="315.136719" xlink:href="#DejaVuSans-104"/>
     <use x="378.515625" xlink:href="#DejaVuSans-105"/>
     <use x="406.298828" xlink:href="#DejaVuSans-108"/>
     <use x="434.082031" xlink:href="#DejaVuSans-108"/>
     <use x="461.865234" xlink:href="#DejaVuSans-32"/>
     <use x="493.652344" xlink:href="#DejaVuSans-8212"/>
     <use x="593.652344" xlink:href="#DejaVuSans-32"/>
     <use x="625.439453" xlink:href="#DejaVuSans-75"/>
     <use x="691.015625" xlink:href="#DejaVuSans-110"/>
     <use x="754.394531" xlink:href="#DejaVuSans-101"/>
     <use x="815.917969" xlink:href="#DejaVuSans-101"/>
     <use x="877.441406" xlink:href="#DejaVuSans-32"/>
     <use x="909.228516" xlink:href="#DejaVuSans-68"/>
     <use x="986.230469" xlink:href="#DejaVuSans-114"/>
     <use x="1027.34375" xlink:href="#DejaVuSans-105"/>
     <use x="1055.126953" xlink:href="#DejaVuSans-118"/>
     <use x="1114.306641" xlink:href="#DejaVuSans-101"/>
     <use x="1175.830078" xlink:href="#DejaVuSans-32"/>
    </g>
    <!--  -->
    <g transform="translate(236.16 35.472)scale(0.12 -0.12)"/>
   </g>
  </g>
 </g>
 <defs>
  <clipPath id="pc549d8bc21">
   <rect height="266.112" width="357.12" x="57.6" y="41.472"/>
  </clipPath>
 </defs>
</svg>
