<?xml version="1.0" encoding="utf-8" standalone="no"?>
<!DOCTYPE svg PUBLIC "-//W3C//DTD SVG 1.1//EN"
  "http://www.w3.org/Graphics/SVG/1.1/DTD/svg11.dtd">
<!-- Created with matplotlib (https://matplotlib.org/) -->
<svg height="345.6pt" version="1.1" viewBox="0 0 460.8 345.6" width="460.8pt" xmlns="http://www.w3.org/2000/svg" xmlns:xlink="http://www.w3.org/1999/xlink">
 <metadata>
  <rdf:RDF xmlns:cc="http://creativecommons.org/ns#" xmlns:dc="http://purl.org/dc/elements/1.1/" xmlns:rdf="http://www.w3.org/1999/02/22-rdf-syntax-ns#">
   <cc:Work>
    <dc:type rdf:resource="http://purl.org/dc/dcmitype/StillImage"/>
    <dc:date>2020-09-21T10:30:28.327803</dc:date>
    <dc:format>image/svg+xml</dc:format>
    <dc:creator>
     <cc:Agent>
      <dc:title>Matplotlib v3.3.2, https://matplotlib.org/</dc:title>
     </cc:Agent>
    </dc:creator>
   </cc:Work>
  </rdf:RDF>
 </metadata>
 <defs>
  <style type="text/css">*{stroke-linecap:butt;stroke-linejoin:round;}</style>
 </defs>
 <g id="figure_1">
  <g id="patch_1">
   <path d="M 0 345.6 
L 460.8 345.6 
L 460.8 0 
L 0 0 
z
" style="fill:none;"/>
  </g>
  <g id="axes_1">
   <g id="patch_2">
    <path d="M 57.6 307.584 
L 414.72 307.584 
L 414.72 41.472 
L 57.6 41.472 
z
" style="fill:none;"/>
   </g>
   <g id="matplotlib.axis_1">
    <g id="xtick_1">
     <g id="line2d_1">
      <defs>
       <path d="M 0 0 
L 0 3.5 
" id="m8231ef8005" style="stroke:#000000;stroke-width:0.8;"/>
      </defs>
      <g>
       <use style="stroke:#000000;stroke-width:0.8;" x="57.6" xlink:href="#m8231ef8005" y="307.584"/>
      </g>
     </g>
     <g id="text_1">
      <!-- 0 -->
      <g transform="translate(54.41875 322.182437)scale(0.1 -0.1)">
       <defs>
        <path d="M 31.78125 66.40625 
Q 24.171875 66.40625 20.328125 58.90625 
Q 16.5 51.421875 16.5 36.375 
Q 16.5 21.390625 20.328125 13.890625 
Q 24.171875 6.390625 31.78125 6.390625 
Q 39.453125 6.390625 43.28125 13.890625 
Q 47.125 21.390625 47.125 36.375 
Q 47.125 51.421875 43.28125 58.90625 
Q 39.453125 66.40625 31.78125 66.40625 
z
M 31.78125 74.21875 
Q 44.046875 74.21875 50.515625 64.515625 
Q 56.984375 54.828125 56.984375 36.375 
Q 56.984375 17.96875 50.515625 8.265625 
Q 44.046875 -1.421875 31.78125 -1.421875 
Q 19.53125 -1.421875 13.0625 8.265625 
Q 6.59375 17.96875 6.59375 36.375 
Q 6.59375 54.828125 13.0625 64.515625 
Q 19.53125 74.21875 31.78125 74.21875 
z
" id="DejaVuSans-48"/>
       </defs>
       <use xlink:href="#DejaVuSans-48"/>
      </g>
     </g>
    </g>
    <g id="xtick_2">
     <g id="line2d_2">
      <g>
       <use style="stroke:#000000;stroke-width:0.8;" x="414.72" xlink:href="#m8231ef8005" y="307.584"/>
      </g>
     </g>
     <g id="text_2">
      <!-- 100 -->
      <g transform="translate(405.17625 322.182437)scale(0.1 -0.1)">
       <defs>
        <path d="M 12.40625 8.296875 
L 28.515625 8.296875 
L 28.515625 63.921875 
L 10.984375 60.40625 
L 10.984375 69.390625 
L 28.421875 72.90625 
L 38.28125 72.90625 
L 38.28125 8.296875 
L 54.390625 8.296875 
L 54.390625 0 
L 12.40625 0 
z
" id="DejaVuSans-49"/>
       </defs>
       <use xlink:href="#DejaVuSans-49"/>
       <use x="63.623047" xlink:href="#DejaVuSans-48"/>
       <use x="127.246094" xlink:href="#DejaVuSans-48"/>
      </g>
     </g>
    </g>
    <g id="text_3">
     <!-- Torque (N-m) -->
     <g transform="translate(203.60375 335.860562)scale(0.1 -0.1)">
      <defs>
       <path d="M -0.296875 72.90625 
L 61.375 72.90625 
L 61.375 64.59375 
L 35.5 64.59375 
L 35.5 0 
L 25.59375 0 
L 25.59375 64.59375 
L -0.296875 64.59375 
z
" id="DejaVuSans-84"/>
       <path d="M 30.609375 48.390625 
Q 23.390625 48.390625 19.1875 42.75 
Q 14.984375 37.109375 14.984375 27.296875 
Q 14.984375 17.484375 19.15625 11.84375 
Q 23.34375 6.203125 30.609375 6.203125 
Q 37.796875 6.203125 41.984375 11.859375 
Q 46.1875 17.53125 46.1875 27.296875 
Q 46.1875 37.015625 41.984375 42.703125 
Q 37.796875 48.390625 30.609375 48.390625 
z
M 30.609375 56 
Q 42.328125 56 49.015625 48.375 
Q 55.71875 40.765625 55.71875 27.296875 
Q 55.71875 13.875 49.015625 6.21875 
Q 42.328125 -1.421875 30.609375 -1.421875 
Q 18.84375 -1.421875 12.171875 6.21875 
Q 5.515625 13.875 5.515625 27.296875 
Q 5.515625 40.765625 12.171875 48.375 
Q 18.84375 56 30.609375 56 
z
" id="DejaVuSans-111"/>
       <path d="M 41.109375 46.296875 
Q 39.59375 47.171875 37.8125 47.578125 
Q 36.03125 48 33.890625 48 
Q 26.265625 48 22.1875 43.046875 
Q 18.109375 38.09375 18.109375 28.8125 
L 18.109375 0 
L 9.078125 0 
L 9.078125 54.6875 
L 18.109375 54.6875 
L 18.109375 46.1875 
Q 20.953125 51.171875 25.484375 53.578125 
Q 30.03125 56 36.53125 56 
Q 37.453125 56 38.578125 55.875 
Q 39.703125 55.765625 41.0625 55.515625 
z
" id="DejaVuSans-114"/>
       <path d="M 14.796875 27.296875 
Q 14.796875 17.390625 18.875 11.75 
Q 22.953125 6.109375 30.078125 6.109375 
Q 37.203125 6.109375 41.296875 11.75 
Q 45.40625 17.390625 45.40625 27.296875 
Q 45.40625 37.203125 41.296875 42.84375 
Q 37.203125 48.484375 30.078125 48.484375 
Q 22.953125 48.484375 18.875 42.84375 
Q 14.796875 37.203125 14.796875 27.296875 
z
M 45.40625 8.203125 
Q 42.578125 3.328125 38.25 0.953125 
Q 33.9375 -1.421875 27.875 -1.421875 
Q 17.96875 -1.421875 11.734375 6.484375 
Q 5.515625 14.40625 5.515625 27.296875 
Q 5.515625 40.1875 11.734375 48.09375 
Q 17.96875 56 27.875 56 
Q 33.9375 56 38.25 53.625 
Q 42.578125 51.265625 45.40625 46.390625 
L 45.40625 54.6875 
L 54.390625 54.6875 
L 54.390625 -20.796875 
L 45.40625 -20.796875 
z
" id="DejaVuSans-113"/>
       <path d="M 8.5 21.578125 
L 8.5 54.6875 
L 17.484375 54.6875 
L 17.484375 21.921875 
Q 17.484375 14.15625 20.5 10.265625 
Q 23.53125 6.390625 29.59375 6.390625 
Q 36.859375 6.390625 41.078125 11.03125 
Q 45.3125 15.671875 45.3125 23.6875 
L 45.3125 54.6875 
L 54.296875 54.6875 
L 54.296875 0 
L 45.3125 0 
L 45.3125 8.40625 
Q 42.046875 3.421875 37.71875 1 
Q 33.40625 -1.421875 27.6875 -1.421875 
Q 18.265625 -1.421875 13.375 4.4375 
Q 8.5 10.296875 8.5 21.578125 
z
M 31.109375 56 
z
" id="DejaVuSans-117"/>
       <path d="M 56.203125 29.59375 
L 56.203125 25.203125 
L 14.890625 25.203125 
Q 15.484375 15.921875 20.484375 11.0625 
Q 25.484375 6.203125 34.421875 6.203125 
Q 39.59375 6.203125 44.453125 7.46875 
Q 49.3125 8.734375 54.109375 11.28125 
L 54.109375 2.78125 
Q 49.265625 0.734375 44.1875 -0.34375 
Q 39.109375 -1.421875 33.890625 -1.421875 
Q 20.796875 -1.421875 13.15625 6.1875 
Q 5.515625 13.8125 5.515625 26.8125 
Q 5.515625 40.234375 12.765625 48.109375 
Q 20.015625 56 32.328125 56 
Q 43.359375 56 49.78125 48.890625 
Q 56.203125 41.796875 56.203125 29.59375 
z
M 47.21875 32.234375 
Q 47.125 39.59375 43.09375 43.984375 
Q 39.0625 48.390625 32.421875 48.390625 
Q 24.90625 48.390625 20.390625 44.140625 
Q 15.875 39.890625 15.1875 32.171875 
z
" id="DejaVuSans-101"/>
       <path id="DejaVuSans-32"/>
       <path d="M 31 75.875 
Q 24.46875 64.65625 21.28125 53.65625 
Q 18.109375 42.671875 18.109375 31.390625 
Q 18.109375 20.125 21.3125 9.0625 
Q 24.515625 -2 31 -13.1875 
L 23.1875 -13.1875 
Q 15.875 -1.703125 12.234375 9.375 
Q 8.59375 20.453125 8.59375 31.390625 
Q 8.59375 42.28125 12.203125 53.3125 
Q 15.828125 64.359375 23.1875 75.875 
z
" id="DejaVuSans-40"/>
       <path d="M 9.8125 72.90625 
L 23.09375 72.90625 
L 55.421875 11.921875 
L 55.421875 72.90625 
L 64.984375 72.90625 
L 64.984375 0 
L 51.703125 0 
L 19.390625 60.984375 
L 19.390625 0 
L 9.8125 0 
z
" id="DejaVuSans-78"/>
       <path d="M 4.890625 31.390625 
L 31.203125 31.390625 
L 31.203125 23.390625 
L 4.890625 23.390625 
z
" id="DejaVuSans-45"/>
       <path d="M 52 44.1875 
Q 55.375 50.25 60.0625 53.125 
Q 64.75 56 71.09375 56 
Q 79.640625 56 84.28125 50.015625 
Q 88.921875 44.046875 88.921875 33.015625 
L 88.921875 0 
L 79.890625 0 
L 79.890625 32.71875 
Q 79.890625 40.578125 77.09375 44.375 
Q 74.3125 48.1875 68.609375 48.1875 
Q 61.625 48.1875 57.5625 43.546875 
Q 53.515625 38.921875 53.515625 30.90625 
L 53.515625 0 
L 44.484375 0 
L 44.484375 32.71875 
Q 44.484375 40.625 41.703125 44.40625 
Q 38.921875 48.1875 33.109375 48.1875 
Q 26.21875 48.1875 22.15625 43.53125 
Q 18.109375 38.875 18.109375 30.90625 
L 18.109375 0 
L 9.078125 0 
L 9.078125 54.6875 
L 18.109375 54.6875 
L 18.109375 46.1875 
Q 21.1875 51.21875 25.484375 53.609375 
Q 29.78125 56 35.6875 56 
Q 41.65625 56 45.828125 52.96875 
Q 50 49.953125 52 44.1875 
z
" id="DejaVuSans-109"/>
       <path d="M 8.015625 75.875 
L 15.828125 75.875 
Q 23.140625 64.359375 26.78125 53.3125 
Q 30.421875 42.28125 30.421875 31.390625 
Q 30.421875 20.453125 26.78125 9.375 
Q 23.140625 -1.703125 15.828125 -13.1875 
L 8.015625 -13.1875 
Q 14.5 -2 17.703125 9.0625 
Q 20.90625 20.125 20.90625 31.390625 
Q 20.90625 42.671875 17.703125 53.65625 
Q 14.5 64.65625 8.015625 75.875 
z
" id="DejaVuSans-41"/>
      </defs>
      <use xlink:href="#DejaVuSans-84"/>
      <use x="44.083984" xlink:href="#DejaVuSans-111"/>
      <use x="105.265625" xlink:href="#DejaVuSans-114"/>
      <use x="144.628906" xlink:href="#DejaVuSans-113"/>
      <use x="208.105469" xlink:href="#DejaVuSans-117"/>
      <use x="271.484375" xlink:href="#DejaVuSans-101"/>
      <use x="333.007812" xlink:href="#DejaVuSans-32"/>
      <use x="364.794922" xlink:href="#DejaVuSans-40"/>
      <use x="403.808594" xlink:href="#DejaVuSans-78"/>
      <use x="478.613281" xlink:href="#DejaVuSans-45"/>
      <use x="514.697266" xlink:href="#DejaVuSans-109"/>
      <use x="612.109375" xlink:href="#DejaVuSans-41"/>
     </g>
    </g>
   </g>
   <g id="matplotlib.axis_2">
    <g id="ytick_1">
     <g id="line2d_3">
      <defs>
       <path d="M 0 0 
L -3.5 0 
" id="mb1c82e1d88" style="stroke:#000000;stroke-width:0.8;"/>
      </defs>
      <g>
       <use style="stroke:#000000;stroke-width:0.8;" x="57.6" xlink:href="#mb1c82e1d88" y="307.584"/>
      </g>
     </g>
     <g id="text_4">
      <!-- 0 -->
      <g transform="translate(44.2375 311.383219)scale(0.1 -0.1)">
       <use xlink:href="#DejaVuSans-48"/>
      </g>
     </g>
    </g>
    <g id="ytick_2">
     <g id="line2d_4">
      <g>
       <use style="stroke:#000000;stroke-width:0.8;" x="57.6" xlink:href="#mb1c82e1d88" y="41.472"/>
      </g>
     </g>
     <g id="text_5">
      <!-- 5 -->
      <g transform="translate(44.2375 45.271219)scale(0.1 -0.1)">
       <defs>
        <path d="M 10.796875 72.90625 
L 49.515625 72.90625 
L 49.515625 64.59375 
L 19.828125 64.59375 
L 19.828125 46.734375 
Q 21.96875 47.46875 24.109375 47.828125 
Q 26.265625 48.1875 28.421875 48.1875 
Q 40.625 48.1875 47.75 41.5 
Q 54.890625 34.8125 54.890625 23.390625 
Q 54.890625 11.625 47.5625 5.09375 
Q 40.234375 -1.421875 26.90625 -1.421875 
Q 22.3125 -1.421875 17.546875 -0.640625 
Q 12.796875 0.140625 7.71875 1.703125 
L 7.71875 11.625 
Q 12.109375 9.234375 16.796875 8.0625 
Q 21.484375 6.890625 26.703125 6.890625 
Q 35.15625 6.890625 40.078125 11.328125 
Q 45.015625 15.765625 45.015625 23.390625 
Q 45.015625 31 40.078125 35.4375 
Q 35.15625 39.890625 26.703125 39.890625 
Q 22.75 39.890625 18.8125 39.015625 
Q 14.890625 38.140625 10.796875 36.28125 
z
" id="DejaVuSans-53"/>
       </defs>
       <use xlink:href="#DejaVuSans-53"/>
      </g>
     </g>
    </g>
    <g id="text_6">
     <!--  -->
     <g transform="translate(15.762188 174.528)rotate(-90)scale(0.1 -0.1)"/>
     <!--  Speed (rad/s²)  -->
     <g transform="translate(26.96 213.460031)rotate(-90)scale(0.1 -0.1)">
      <defs>
       <path d="M 53.515625 70.515625 
L 53.515625 60.890625 
Q 47.90625 63.578125 42.921875 64.890625 
Q 37.9375 66.21875 33.296875 66.21875 
Q 25.25 66.21875 20.875 63.09375 
Q 16.5 59.96875 16.5 54.203125 
Q 16.5 49.359375 19.40625 46.890625 
Q 22.3125 44.4375 30.421875 42.921875 
L 36.375 41.703125 
Q 47.40625 39.59375 52.65625 34.296875 
Q 57.90625 29 57.90625 20.125 
Q 57.90625 9.515625 50.796875 4.046875 
Q 43.703125 -1.421875 29.984375 -1.421875 
Q 24.8125 -1.421875 18.96875 -0.25 
Q 13.140625 0.921875 6.890625 3.21875 
L 6.890625 13.375 
Q 12.890625 10.015625 18.65625 8.296875 
Q 24.421875 6.59375 29.984375 6.59375 
Q 38.421875 6.59375 43.015625 9.90625 
Q 47.609375 13.234375 47.609375 19.390625 
Q 47.609375 24.75 44.3125 27.78125 
Q 41.015625 30.8125 33.5 32.328125 
L 27.484375 33.5 
Q 16.453125 35.6875 11.515625 40.375 
Q 6.59375 45.0625 6.59375 53.421875 
Q 6.59375 63.09375 13.40625 68.65625 
Q 20.21875 74.21875 32.171875 74.21875 
Q 37.3125 74.21875 42.625 73.28125 
Q 47.953125 72.359375 53.515625 70.515625 
z
" id="DejaVuSans-83"/>
       <path d="M 18.109375 8.203125 
L 18.109375 -20.796875 
L 9.078125 -20.796875 
L 9.078125 54.6875 
L 18.109375 54.6875 
L 18.109375 46.390625 
Q 20.953125 51.265625 25.265625 53.625 
Q 29.59375 56 35.59375 56 
Q 45.5625 56 51.78125 48.09375 
Q 58.015625 40.1875 58.015625 27.296875 
Q 58.015625 14.40625 51.78125 6.484375 
Q 45.5625 -1.421875 35.59375 -1.421875 
Q 29.59375 -1.421875 25.265625 0.953125 
Q 20.953125 3.328125 18.109375 8.203125 
z
M 48.6875 27.296875 
Q 48.6875 37.203125 44.609375 42.84375 
Q 40.53125 48.484375 33.40625 48.484375 
Q 26.265625 48.484375 22.1875 42.84375 
Q 18.109375 37.203125 18.109375 27.296875 
Q 18.109375 17.390625 22.1875 11.75 
Q 26.265625 6.109375 33.40625 6.109375 
Q 40.53125 6.109375 44.609375 11.75 
Q 48.6875 17.390625 48.6875 27.296875 
z
" id="DejaVuSans-112"/>
       <path d="M 45.40625 46.390625 
L 45.40625 75.984375 
L 54.390625 75.984375 
L 54.390625 0 
L 45.40625 0 
L 45.40625 8.203125 
Q 42.578125 3.328125 38.25 0.953125 
Q 33.9375 -1.421875 27.875 -1.421875 
Q 17.96875 -1.421875 11.734375 6.484375 
Q 5.515625 14.40625 5.515625 27.296875 
Q 5.515625 40.1875 11.734375 48.09375 
Q 17.96875 56 27.875 56 
Q 33.9375 56 38.25 53.625 
Q 42.578125 51.265625 45.40625 46.390625 
z
M 14.796875 27.296875 
Q 14.796875 17.390625 18.875 11.75 
Q 22.953125 6.109375 30.078125 6.109375 
Q 37.203125 6.109375 41.296875 11.75 
Q 45.40625 17.390625 45.40625 27.296875 
Q 45.40625 37.203125 41.296875 42.84375 
Q 37.203125 48.484375 30.078125 48.484375 
Q 22.953125 48.484375 18.875 42.84375 
Q 14.796875 37.203125 14.796875 27.296875 
z
" id="DejaVuSans-100"/>
       <path d="M 34.28125 27.484375 
Q 23.390625 27.484375 19.1875 25 
Q 14.984375 22.515625 14.984375 16.5 
Q 14.984375 11.71875 18.140625 8.90625 
Q 21.296875 6.109375 26.703125 6.109375 
Q 34.1875 6.109375 38.703125 11.40625 
Q 43.21875 16.703125 43.21875 25.484375 
L 43.21875 27.484375 
z
M 52.203125 31.203125 
L 52.203125 0 
L 43.21875 0 
L 43.21875 8.296875 
Q 40.140625 3.328125 35.546875 0.953125 
Q 30.953125 -1.421875 24.3125 -1.421875 
Q 15.921875 -1.421875 10.953125 3.296875 
Q 6 8.015625 6 15.921875 
Q 6 25.140625 12.171875 29.828125 
Q 18.359375 34.515625 30.609375 34.515625 
L 43.21875 34.515625 
L 43.21875 35.40625 
Q 43.21875 41.609375 39.140625 45 
Q 35.0625 48.390625 27.6875 48.390625 
Q 23 48.390625 18.546875 47.265625 
Q 14.109375 46.140625 10.015625 43.890625 
L 10.015625 52.203125 
Q 14.9375 54.109375 19.578125 55.046875 
Q 24.21875 56 28.609375 56 
Q 40.484375 56 46.34375 49.84375 
Q 52.203125 43.703125 52.203125 31.203125 
z
" id="DejaVuSans-97"/>
       <path d="M 25.390625 72.90625 
L 33.6875 72.90625 
L 8.296875 -9.28125 
L 0 -9.28125 
z
" id="DejaVuSans-47"/>
       <path d="M 44.28125 53.078125 
L 44.28125 44.578125 
Q 40.484375 46.53125 36.375 47.5 
Q 32.28125 48.484375 27.875 48.484375 
Q 21.1875 48.484375 17.84375 46.4375 
Q 14.5 44.390625 14.5 40.28125 
Q 14.5 37.15625 16.890625 35.375 
Q 19.28125 33.59375 26.515625 31.984375 
L 29.59375 31.296875 
Q 39.15625 29.25 43.1875 25.515625 
Q 47.21875 21.78125 47.21875 15.09375 
Q 47.21875 7.46875 41.1875 3.015625 
Q 35.15625 -1.421875 24.609375 -1.421875 
Q 20.21875 -1.421875 15.453125 -0.5625 
Q 10.6875 0.296875 5.421875 2 
L 5.421875 11.28125 
Q 10.40625 8.6875 15.234375 7.390625 
Q 20.0625 6.109375 24.8125 6.109375 
Q 31.15625 6.109375 34.5625 8.28125 
Q 37.984375 10.453125 37.984375 14.40625 
Q 37.984375 18.0625 35.515625 20.015625 
Q 33.0625 21.96875 24.703125 23.78125 
L 21.578125 24.515625 
Q 13.234375 26.265625 9.515625 29.90625 
Q 5.8125 33.546875 5.8125 39.890625 
Q 5.8125 47.609375 11.28125 51.796875 
Q 16.75 56 26.8125 56 
Q 31.78125 56 36.171875 55.265625 
Q 40.578125 54.546875 44.28125 53.078125 
z
" id="DejaVuSans-115"/>
       <path d="M 13.09375 38.1875 
L 33.796875 38.1875 
L 33.796875 32.625 
L 4.59375 32.625 
L 4.59375 37.984375 
Q 6.25 39.5 9.328125 42.234375 
Q 26.125 57.125 26.125 61.71875 
Q 26.125 64.9375 23.578125 66.90625 
Q 21.046875 68.890625 16.890625 68.890625 
Q 14.359375 68.890625 11.375 68.03125 
Q 8.40625 67.1875 4.890625 65.484375 
L 4.890625 71.484375 
Q 8.640625 72.859375 11.890625 73.53125 
Q 15.140625 74.21875 17.921875 74.21875 
Q 25 74.21875 29.25 71 
Q 33.5 67.78125 33.5 62.5 
Q 33.5 55.71875 17.328125 41.84375 
Q 14.59375 39.5 13.09375 38.1875 
z
" id="DejaVuSans-178"/>
      </defs>
      <use xlink:href="#DejaVuSans-32"/>
      <use x="31.787109" xlink:href="#DejaVuSans-83"/>
      <use x="95.263672" xlink:href="#DejaVuSans-112"/>
      <use x="158.740234" xlink:href="#DejaVuSans-101"/>
      <use x="220.263672" xlink:href="#DejaVuSans-101"/>
      <use x="281.787109" xlink:href="#DejaVuSans-100"/>
      <use x="345.263672" xlink:href="#DejaVuSans-32"/>
      <use x="377.050781" xlink:href="#DejaVuSans-40"/>
      <use x="416.064453" xlink:href="#DejaVuSans-114"/>
      <use x="457.177734" xlink:href="#DejaVuSans-97"/>
      <use x="518.457031" xlink:href="#DejaVuSans-100"/>
      <use x="581.933594" xlink:href="#DejaVuSans-47"/>
      <use x="615.625" xlink:href="#DejaVuSans-115"/>
      <use x="667.724609" xlink:href="#DejaVuSans-178"/>
      <use x="707.8125" xlink:href="#DejaVuSans-41"/>
      <use x="746.826172" xlink:href="#DejaVuSans-32"/>
     </g>
     <!--  -->
     <g transform="translate(38.157813 174.528)rotate(-90)scale(0.1 -0.1)"/>
    </g>
   </g>
   <g id="line2d_5">
    <path clip-path="url(#pac740653ca)" d="M 109.865747 304.707382 
L 107.73406 301.563284 
L 105.328233 298.485446 
L 103.32108 296.23597 
L 101.122267 294.051498 
L 98.716627 291.945505 
L 96.101189 289.931465 
L 93.281987 288.022853 
L 90.265091 286.233139 
L 87.056563 284.574665 
L 83.662452 283.056003 
L 80.0888 281.684762 
L 76.343978 280.468551 
L 72.450551 279.414981 
L 68.438609 278.531661 
L 64.338447 277.826481 
L 60.180379 277.310489 
L 57.808855 277.077874 
L 61.996008 276.905403 
L 66.162896 276.955937 
L 70.289977 277.242145 
L 74.357785 277.776696 
L 78.346693 278.571178 
L 82.237043 279.624054 
L 86.009149 280.923785 
L 89.643273 282.458454 
L 93.120731 284.216144 
L 96.426626 286.184937 
L 99.54692 288.352915 
L 102.467546 290.705965 
L 105.174405 293.220548 
L 107.653367 295.869959 
L 109.888919 298.627475 
L 111.856167 301.466374 
L 113.525771 304.359934 
L 114.868325 307.281627 
L 115.238075 306.91015 
L 115.854367 304.957132 
L 116.299089 303.006129 
L 116.563481 301.060468 
L 116.638871 299.123481 
L 116.519974 297.198498 
L 116.209213 295.288847 
L 115.710946 293.39786 
L 115.029554 291.528866 
L 114.169425 289.685197 
L 113.134948 287.870221 
L 111.930517 286.087012 
L 110.560527 284.338492 
L 108.204752 281.787151 
L 105.503398 279.330305 
L 102.486514 276.977821 
L 99.1913 274.739565 
L 95.655226 272.625754 
L 91.915831 270.653007 
L 88.010729 268.844602 
L 83.977591 267.22423 
L 79.850328 265.815583 
L 75.651208 264.642352 
L 71.399868 263.728227 
L 67.115977 263.093242 
L 62.81924 262.738069 
L 58.5294 262.655594 
L 58.095603 262.68746 
L 62.346102 262.957409 
L 66.546248 263.483297 
L 70.678994 264.25794 
L 74.727286 265.273543 
L 78.674042 266.515308 
L 82.502152 267.963124 
L 86.19452 269.596682 
L 89.730138 271.395676 
L 93.078183 273.339797 
L 96.206196 275.408739 
L 99.081681 277.582845 
L 101.672103 279.847043 
L 103.944893 282.18815 
L 105.870133 284.592987 
L 107.440993 287.048374 
L 108.666856 289.541133 
L 109.557772 292.058175 
L 110.123818 294.587679 
L 110.375096 297.118603 
L 110.321853 299.639897 
L 109.980637 302.140509 
L 109.382148 304.609387 
L 108.560151 307.035482 
L 108.242327 307.335222 
L 107.174931 304.98356 
L 105.53276 301.963612 
L 103.713883 299.110591 
L 101.794395 296.462471 
L 99.355736 293.498241 
L 96.993376 290.965159 
L 93.686535 287.770516 
L 90.538837 284.730314 
L 90.120702 284.06757 
L 90.052825 283.635221 
L 90.215667 283.234535 
L 90.629345 282.844089 
L 91.605952 282.302828 
L 93.576997 281.524042 
L 108.004678 276.365112 
L 113.795918 273.952832 
L 120.187738 271.03312 
L 125.617012 268.307871 
L 131.225954 265.215041 
L 135.494467 262.641711 
L 139.772332 259.841399 
L 144.022462 256.805537 
L 148.210128 253.525559 
L 152.300586 249.992899 
L 156.259104 246.202518 
L 160.050961 242.164053 
L 163.641447 237.89178 
L 166.996718 233.400001 
L 170.093878 228.703019 
L 172.008269 225.464758 
L 173.797598 222.14589 
L 175.45779 218.750702 
L 176.984765 215.284744 
L 178.374443 211.755655 
L 179.62274 208.171342 
L 180.725572 204.539708 
L 181.678937 200.868659 
L 182.478679 197.166099 
L 183.120426 193.439932 
L 183.599866 189.698064 
L 183.912683 185.948399 
L 184.054558 182.198753 
L 184.021171 178.456109 
L 183.808195 174.726912 
L 183.411303 171.01759 
L 182.826163 167.334572 
L 182.048605 163.684288 
L 181.078528 160.073167 
L 179.920086 156.507638 
L 178.577753 152.99413 
L 177.056006 149.539072 
L 175.359319 146.148774 
L 173.492169 142.827849 
L 171.459037 139.579123 
L 169.264404 136.405307 
L 166.912755 133.309115 
L 164.408807 130.29326 
L 161.759084 127.360454 
L 158.972132 124.51341 
L 156.05672 121.754841 
L 151.461937 117.788796 
L 146.6275 114.036461 
L 141.583073 110.506712 
L 136.358341 107.208786 
L 130.982475 104.151918 
L 125.480524 101.345344 
L 119.875669 98.7983 
L 114.191091 96.519977 
L 108.449984 94.514323 
L 102.67555 92.777592 
L 96.891031 91.305481 
L 91.118046 90.09369 
L 85.370979 89.137916 
L 79.66228 88.433856 
L 74.004394 87.976432 
L 68.409756 87.757218 
L 62.890794 87.766669 
L 57.740312 87.995239 
L 63.073367 88.433381 
L 68.298645 89.071546 
L 73.406345 89.900179 
L 78.386686 90.910467 
L 83.229906 92.095625 
L 87.926235 93.449171 
L 92.464946 94.964623 
L 96.839373 96.6355 
L 101.046472 98.455319 
L 105.083263 100.417455 
L 108.946788 102.515409 
L 112.634113 104.74329 
L 116.142425 107.09523 
L 119.471483 109.565363 
L 122.624668 112.147821 
L 125.605747 114.836736 
L 128.418493 117.62678 
L 131.066695 120.514764 
L 133.554146 123.498046 
L 135.884775 126.573982 
L 138.061829 129.739929 
L 140.087444 132.993245 
L 141.963708 136.331034 
L 144.236691 140.902433 
L 146.252861 145.59485 
L 148.018149 150.389306 
L 149.540845 155.266822 
L 150.82905 160.208506 
L 151.890833 165.198275 
L 152.734247 170.22377 
L 153.367303 175.272905 
L 153.794948 180.333597 
L 154.020212 185.393828 
L 154.046086 190.442677 
L 153.875533 195.470236 
L 153.514225 200.466645 
L 152.819961 206.653329 
L 151.891557 212.7576 
L 150.766889 218.767659 
L 149.208806 225.84292 
L 147.465953 232.754568 
L 145.250777 240.593907 
L 142.55229 249.237299 
L 139.391678 258.532222 
L 135.478699 269.304237 
L 130.881645 281.32438 
L 125.980063 293.518453 
L 121.766232 303.405644 
L 119.963445 307.377298 
L 119.595871 307.006734 
L 116.931031 301.621049 
L 114.482198 297.15635 
L 111.847388 292.843383 
L 109.489803 289.374306 
L 106.968038 286.029385 
L 104.267116 282.81887 
L 101.373972 279.75321 
L 98.275776 276.848906 
L 95.641056 274.657366 
L 92.86526 272.596269 
L 89.954128 270.677795 
L 86.914232 268.913776 
L 83.752152 267.313357 
L 80.474466 265.884318 
L 77.087565 264.634421 
L 73.598452 263.57143 
L 70.014389 262.703065 
L 66.342659 262.036693 
L 62.590714 261.579497 
L 58.772033 261.338654 
L 57.809509 261.31309 
L 64.17595 261.53329 
L 68.059255 261.972289 
L 71.918158 262.633251 
L 75.733427 263.511076 
L 79.490689 264.600659 
L 83.175962 265.897104 
L 86.77524 267.396307 
L 90.274502 269.094347 
L 93.659972 270.9873 
L 96.918307 273.071246 
L 100.036201 275.340755 
L 103.000336 277.782505 
L 105.797969 280.38028 
L 108.427686 283.117854 
L 110.899921 285.979001 
L 113.785738 289.706674 
L 116.46472 293.583647 
L 118.956535 297.591753 
L 121.274738 301.712831 
L 124.25225 307.530195 
L 126.579089 302.340186 
L 129.08191 296.197522 
L 132.431357 287.30007 
L 136.691727 275.350189 
L 141.646055 260.736504 
L 147.102384 243.933742 
L 149.436034 236.120144 
L 150.95174 230.355319 
L 152.264559 224.44842 
L 153.129683 219.628404 
L 153.804868 214.730827 
L 154.267174 209.761694 
L 154.493673 204.727145 
L 154.46309 199.633357 
L 154.168288 194.486503 
L 153.608796 189.292778 
L 152.784073 184.064737 
L 151.693597 178.8329 
L 150.337818 173.63127 
L 148.727767 168.493854 
L 146.882354 163.454647 
L 144.82079 158.545174 
L 142.56229 153.790644 
L 140.124747 149.215161 
L 137.518013 144.842833 
L 134.748931 140.697685 
L 131.824353 136.795149 
L 128.751133 133.133491 
L 125.539364 129.708816 
L 122.228092 126.517227 
L 118.035141 122.849288 
L 113.885832 119.520701 
L 107.603479 114.818066 
L 97.40615 107.267003 
L 93.453036 103.982574 
L 90.208242 101.018608 
L 87.026482 97.750417 
L 84.277411 95.049582 
L 81.112998 92.305323 
L 77.236412 89.187862 
L 73.865519 86.741452 
L 70.713019 84.739433 
L 67.918729 83.218773 
L 64.84492 81.825187 
L 62.33535 80.897803 
L 59.637142 80.098245 
L 57.732292 79.648156 
L 59.457103 79.272779 
L 62.599155 78.865451 
L 65.929979 78.660977 
L 69.448703 78.661507 
L 73.154448 78.86548 
L 77.045383 79.271326 
L 81.105786 79.877476 
L 85.308582 80.682361 
L 89.626266 81.684373 
L 94.031355 82.882961 
L 98.49639 84.28075 
L 102.993974 85.880817 
L 107.496209 87.686239 
L 111.970793 89.70009 
L 116.384151 91.925448 
L 120.702746 94.364634 
L 124.893079 97.014236 
L 128.921687 99.867671 
L 132.756193 102.918296 
L 136.382979 106.15947 
L 139.807862 109.584552 
L 143.03787 113.186908 
L 146.080014 116.958258 
L 148.941292 120.883024 
L 151.628698 124.943794 
L 154.151547 129.123157 
L 156.522794 133.403703 
L 159.46909 139.238397 
L 162.194796 145.181621 
L 164.727749 151.19266 
L 167.66724 158.737785 
L 177.087238 183.727359 
L 180.717174 192.229627 
L 185.201604 202.045502 
L 194.006896 220.55071 
L 199.194669 231.074042 
L 204.137723 240.657566 
L 211.635334 254.59822 
L 219.946524 270.226968 
L 227.597944 285.148491 
L 233.075837 296.325857 
L 238.348326 307.362501 
L 241.331625 300.343163 
L 244.127953 293.215938 
L 246.695938 285.972972 
L 248.996261 278.606409 
L 250.360624 273.622823 
L 251.575211 268.578487 
L 252.627651 263.471399 
L 253.505569 258.303424 
L 254.196581 253.079391 
L 254.688302 247.804263 
L 254.968338 242.483003 
L 255.024861 237.120573 
L 254.85772 231.721936 
L 254.47841 226.292054 
L 253.898989 220.835889 
L 253.131516 215.358406 
L 252.188059 209.864798 
L 251.080688 204.362854 
L 249.138711 196.116509 
L 246.895877 187.908895 
L 244.389477 179.774711 
L 241.622123 171.748658 
L 238.578063 163.865433 
L 236.387142 158.706399 
L 234.061507 153.635165 
L 231.596464 148.659543 
L 228.987317 143.787485 
L 226.229371 139.026944 
L 223.317971 134.385872 
L 220.251413 129.87222 
L 217.034766 125.49394 
L 213.674297 121.258986 
L 210.17628 117.175308 
L 206.546994 113.250848 
L 202.792723 109.490853 
L 198.919755 105.890591 
L 194.934382 102.44289 
L 190.842902 99.140577 
L 186.651672 95.976477 
L 182.368947 92.94342 
L 175.800336 88.623845 
L 169.097604 84.558765 
L 162.305 80.724171 
L 155.46681 77.110181 
L 148.627346 73.726822 
L 141.830923 70.585523 
L 135.116539 67.697714 
L 128.514103 65.074824 
L 122.052942 62.728284 
L 115.762396 60.667437 
L 109.671813 58.888409 
L 103.810551 57.381727 
L 98.207634 56.13789 
L 92.875806 55.147399 
L 87.80378 54.400755 
L 82.978263 53.888403 
L 78.385953 53.597533 
L 74.013536 53.509194 
L 69.847681 53.603684 
L 64.595007 53.980011 
L 59.699939 54.599628 
L 57.804089 54.986071 
L 62.106254 55.886279 
L 65.975411 56.93636 
L 69.381859 58.114873 
L 72.313426 59.400376 
L 74.781564 60.771428 
L 76.79951 62.206958 
L 78.025506 63.3145 
L 79.011359 64.439936 
L 79.764738 65.57554 
L 80.299981 66.713582 
L 80.633345 67.846337 
L 80.781095 68.966452 
L 80.717475 70.431635 
L 80.391376 71.855514 
L 79.839624 73.228329 
L 79.086873 74.540319 
L 78.153762 75.781815 
L 76.765184 77.222856 
L 75.167737 78.529422 
L 73.403639 79.689439 
L 71.514058 80.691368 
L 69.138599 81.679286 
L 66.709376 82.434967 
L 64.2745 82.960392 
L 61.87284 83.260543 
L 59.543751 83.347323 
L 57.688851 83.265967 
L 57.870458 83.23365 
L 59.928819 82.934176 
L 61.790781 82.471443 
L 63.423188 81.870345 
L 64.80919 81.155412 
L 65.934252 80.345725 
L 66.781414 79.456022 
L 67.260568 78.664041 
L 67.521675 77.837703 
L 67.553611 76.993208 
L 67.345656 76.14741 
L 66.890403 75.317164 
L 66.181223 74.518141 
L 65.211131 73.76256 
L 63.959527 73.062026 
L 62.387326 72.42822 
L 60.453954 71.876717 
L 58.119413 71.428482 
L 57.601701 71.353106 
L 60.442817 71.056967 
L 63.714554 70.911223 
L 67.414349 70.938771 
L 71.540931 71.162567 
L 76.0734 71.605467 
L 80.981193 72.291787 
L 86.233859 73.265699 
L 90.663535 74.291285 
L 95.272293 75.568657 
L 100.032684 77.128014 
L 104.917046 78.995496 
L 109.897753 81.183643 
L 114.947134 83.701935 
L 120.035942 86.559851 
L 123.86015 88.931867 
L 127.676669 91.503281 
L 131.472726 94.270998 
L 135.235564 97.229517 
L 138.952105 100.373331 
L 142.602286 103.696932 
L 146.158159 107.194813 
L 149.591287 110.861462 
L 152.873267 114.690459 
L 155.975723 118.672672 
L 158.870314 122.798335 
L 161.5311 127.057684 
L 163.944005 131.440954 
L 166.099674 135.938381 
L 167.988815 140.540195 
L 169.602145 145.236246 
L 170.930396 150.015682 
L 171.964498 154.867587 
L 172.703184 159.781041 
L 173.158354 164.745128 
L 173.343423 169.74893 
L 173.271792 174.780216 
L 172.956848 179.819412 
L 172.411966 184.843837 
L 171.650241 189.830782 
L 170.684992 194.757541 
L 169.531295 199.601404 
L 168.204378 204.339782 
L 166.71945 208.955171 
L 165.091705 213.438696 
L 162.725397 219.198064 
L 160.166959 224.690504 
L 157.451042 229.897442 
L 154.612544 234.803851 
L 151.686307 239.421718 
L 147.957437 244.827556 
L 143.478374 250.843907 
L 132.730816 264.975882 
L 129.488655 269.768053 
L 127.124492 273.631328 
L 125.052315 277.414029 
L 123.247883 281.150507 
L 121.327639 285.621213 
L 114.992786 300.902303 
L 113.051021 304.880357 
L 111.761286 307.277198 
L 111.307462 307.092763 
L 110.360287 305.500624 
L 110.360287 305.500624 
" style="fill:none;stroke:#087f23;stroke-linecap:square;stroke-width:1.5;"/>
   </g>
   <g id="patch_3">
    <path d="M 57.6 307.584 
L 57.6 41.472 
" style="fill:none;stroke:#000000;stroke-linecap:square;stroke-linejoin:miter;stroke-width:0.8;"/>
   </g>
   <g id="patch_4">
    <path d="M 414.72 307.584 
L 414.72 41.472 
" style="fill:none;stroke:#000000;stroke-linecap:square;stroke-linejoin:miter;stroke-width:0.8;"/>
   </g>
   <g id="patch_5">
    <path d="M 57.6 307.584 
L 414.72 307.584 
" style="fill:none;stroke:#000000;stroke-linecap:square;stroke-linejoin:miter;stroke-width:0.8;"/>
   </g>
   <g id="patch_6">
    <path d="M 57.6 41.472 
L 414.72 41.472 
" style="fill:none;stroke:#000000;stroke-linecap:square;stroke-linejoin:miter;stroke-width:0.8;"/>
   </g>
   <g id="text_7">
    <!--  -->
    <g transform="translate(236.16 8.59725)scale(0.12 -0.12)"/>
    <!--  Downhill  -->
    <g transform="translate(206.5425 22.034625)scale(0.12 -0.12)">
     <defs>
      <path d="M 19.671875 64.796875 
L 19.671875 8.109375 
L 31.59375 8.109375 
Q 46.6875 8.109375 53.6875 14.9375 
Q 60.6875 21.78125 60.6875 36.53125 
Q 60.6875 51.171875 53.6875 57.984375 
Q 46.6875 64.796875 31.59375 64.796875 
z
M 9.8125 72.90625 
L 30.078125 72.90625 
Q 51.265625 72.90625 61.171875 64.09375 
Q 71.09375 55.28125 71.09375 36.53125 
Q 71.09375 17.671875 61.125 8.828125 
Q 51.171875 0 30.078125 0 
L 9.8125 0 
z
" id="DejaVuSans-68"/>
      <path d="M 4.203125 54.6875 
L 13.1875 54.6875 
L 24.421875 12.015625 
L 35.59375 54.6875 
L 46.1875 54.6875 
L 57.421875 12.015625 
L 68.609375 54.6875 
L 77.59375 54.6875 
L 63.28125 0 
L 52.6875 0 
L 40.921875 44.828125 
L 29.109375 0 
L 18.5 0 
z
" id="DejaVuSans-119"/>
      <path d="M 54.890625 33.015625 
L 54.890625 0 
L 45.90625 0 
L 45.90625 32.71875 
Q 45.90625 40.484375 42.875 44.328125 
Q 39.84375 48.1875 33.796875 48.1875 
Q 26.515625 48.1875 22.3125 43.546875 
Q 18.109375 38.921875 18.109375 30.90625 
L 18.109375 0 
L 9.078125 0 
L 9.078125 54.6875 
L 18.109375 54.6875 
L 18.109375 46.1875 
Q 21.34375 51.125 25.703125 53.5625 
Q 30.078125 56 35.796875 56 
Q 45.21875 56 50.046875 50.171875 
Q 54.890625 44.34375 54.890625 33.015625 
z
" id="DejaVuSans-110"/>
      <path d="M 54.890625 33.015625 
L 54.890625 0 
L 45.90625 0 
L 45.90625 32.71875 
Q 45.90625 40.484375 42.875 44.328125 
Q 39.84375 48.1875 33.796875 48.1875 
Q 26.515625 48.1875 22.3125 43.546875 
Q 18.109375 38.921875 18.109375 30.90625 
L 18.109375 0 
L 9.078125 0 
L 9.078125 75.984375 
L 18.109375 75.984375 
L 18.109375 46.1875 
Q 21.34375 51.125 25.703125 53.5625 
Q 30.078125 56 35.796875 56 
Q 45.21875 56 50.046875 50.171875 
Q 54.890625 44.34375 54.890625 33.015625 
z
" id="DejaVuSans-104"/>
      <path d="M 9.421875 54.6875 
L 18.40625 54.6875 
L 18.40625 0 
L 9.421875 0 
z
M 9.421875 75.984375 
L 18.40625 75.984375 
L 18.40625 64.59375 
L 9.421875 64.59375 
z
" id="DejaVuSans-105"/>
      <path d="M 9.421875 75.984375 
L 18.40625 75.984375 
L 18.40625 0 
L 9.421875 0 
z
" id="DejaVuSans-108"/>
     </defs>
     <use xlink:href="#DejaVuSans-32"/>
     <use x="31.787109" xlink:href="#DejaVuSans-68"/>
     <use x="108.789062" xlink:href="#DejaVuSans-111"/>
     <use x="169.970703" xlink:href="#DejaVuSans-119"/>
     <use x="251.757812" xlink:href="#DejaVuSans-110"/>
     <use x="315.136719" xlink:href="#DejaVuSans-104"/>
     <use x="378.515625" xlink:href="#DejaVuSans-105"/>
     <use x="406.298828" xlink:href="#DejaVuSans-108"/>
     <use x="434.082031" xlink:href="#DejaVuSans-108"/>
     <use x="461.865234" xlink:href="#DejaVuSans-32"/>
    </g>
    <!--  -->
    <g transform="translate(236.16 35.472)scale(0.12 -0.12)"/>
   </g>
  </g>
 </g>
 <defs>
  <clipPath id="pac740653ca">
   <rect height="266.112" width="357.12" x="57.6" y="41.472"/>
  </clipPath>
 </defs>
</svg>
