<?xml version="1.0" encoding="utf-8" standalone="no"?>
<!DOCTYPE svg PUBLIC "-//W3C//DTD SVG 1.1//EN"
  "http://www.w3.org/Graphics/SVG/1.1/DTD/svg11.dtd">
<!-- Created with matplotlib (https://matplotlib.org/) -->
<svg height="345.6pt" version="1.1" viewBox="0 0 460.8 345.6" width="460.8pt" xmlns="http://www.w3.org/2000/svg" xmlns:xlink="http://www.w3.org/1999/xlink">
 <metadata>
  <rdf:RDF xmlns:cc="http://creativecommons.org/ns#" xmlns:dc="http://purl.org/dc/elements/1.1/" xmlns:rdf="http://www.w3.org/1999/02/22-rdf-syntax-ns#">
   <cc:Work>
    <dc:type rdf:resource="http://purl.org/dc/dcmitype/StillImage"/>
    <dc:date>2020-09-19T18:14:24.661590</dc:date>
    <dc:format>image/svg+xml</dc:format>
    <dc:creator>
     <cc:Agent>
      <dc:title>Matplotlib v3.3.0, https://matplotlib.org/</dc:title>
     </cc:Agent>
    </dc:creator>
   </cc:Work>
  </rdf:RDF>
 </metadata>
 <defs>
  <style type="text/css">*{stroke-linecap:butt;stroke-linejoin:round;}</style>
 </defs>
 <g id="figure_1">
  <g id="patch_1">
   <path d="M 0 345.6 
L 460.8 345.6 
L 460.8 0 
L 0 0 
z
" style="fill:#ffffff;"/>
  </g>
  <g id="axes_1">
   <g id="patch_2">
    <path d="M 57.6 307.584 
L 414.72 307.584 
L 414.72 41.472 
L 57.6 41.472 
z
" style="fill:#ffffff;"/>
   </g>
   <g id="matplotlib.axis_1">
    <g id="xtick_1">
     <g id="line2d_1">
      <defs>
       <path d="M 0 0 
L 0 3.5 
" id="mbefb6cbb37" style="stroke:#000000;stroke-width:0.8;"/>
      </defs>
      <g>
       <use style="stroke:#000000;stroke-width:0.8;" x="57.6" xlink:href="#mbefb6cbb37" y="307.584"/>
      </g>
     </g>
     <g id="text_1">
      <!-- 0 -->
      <g transform="translate(54.41875 322.182437)scale(0.1 -0.1)">
       <defs>
        <path d="M 31.78125 66.40625 
Q 24.171875 66.40625 20.328125 58.90625 
Q 16.5 51.421875 16.5 36.375 
Q 16.5 21.390625 20.328125 13.890625 
Q 24.171875 6.390625 31.78125 6.390625 
Q 39.453125 6.390625 43.28125 13.890625 
Q 47.125 21.390625 47.125 36.375 
Q 47.125 51.421875 43.28125 58.90625 
Q 39.453125 66.40625 31.78125 66.40625 
z
M 31.78125 74.21875 
Q 44.046875 74.21875 50.515625 64.515625 
Q 56.984375 54.828125 56.984375 36.375 
Q 56.984375 17.96875 50.515625 8.265625 
Q 44.046875 -1.421875 31.78125 -1.421875 
Q 19.53125 -1.421875 13.0625 8.265625 
Q 6.59375 17.96875 6.59375 36.375 
Q 6.59375 54.828125 13.0625 64.515625 
Q 19.53125 74.21875 31.78125 74.21875 
z
" id="DejaVuSans-48"/>
       </defs>
       <use xlink:href="#DejaVuSans-48"/>
      </g>
     </g>
    </g>
    <g id="xtick_2">
     <g id="line2d_2">
      <g>
       <use style="stroke:#000000;stroke-width:0.8;" x="414.72" xlink:href="#mbefb6cbb37" y="307.584"/>
      </g>
     </g>
     <g id="text_2">
      <!-- 150 -->
      <g transform="translate(405.17625 322.182437)scale(0.1 -0.1)">
       <defs>
        <path d="M 12.40625 8.296875 
L 28.515625 8.296875 
L 28.515625 63.921875 
L 10.984375 60.40625 
L 10.984375 69.390625 
L 28.421875 72.90625 
L 38.28125 72.90625 
L 38.28125 8.296875 
L 54.390625 8.296875 
L 54.390625 0 
L 12.40625 0 
z
" id="DejaVuSans-49"/>
        <path d="M 10.796875 72.90625 
L 49.515625 72.90625 
L 49.515625 64.59375 
L 19.828125 64.59375 
L 19.828125 46.734375 
Q 21.96875 47.46875 24.109375 47.828125 
Q 26.265625 48.1875 28.421875 48.1875 
Q 40.625 48.1875 47.75 41.5 
Q 54.890625 34.8125 54.890625 23.390625 
Q 54.890625 11.625 47.5625 5.09375 
Q 40.234375 -1.421875 26.90625 -1.421875 
Q 22.3125 -1.421875 17.546875 -0.640625 
Q 12.796875 0.140625 7.71875 1.703125 
L 7.71875 11.625 
Q 12.109375 9.234375 16.796875 8.0625 
Q 21.484375 6.890625 26.703125 6.890625 
Q 35.15625 6.890625 40.078125 11.328125 
Q 45.015625 15.765625 45.015625 23.390625 
Q 45.015625 31 40.078125 35.4375 
Q 35.15625 39.890625 26.703125 39.890625 
Q 22.75 39.890625 18.8125 39.015625 
Q 14.890625 38.140625 10.796875 36.28125 
z
" id="DejaVuSans-53"/>
       </defs>
       <use xlink:href="#DejaVuSans-49"/>
       <use x="63.623047" xlink:href="#DejaVuSans-53"/>
       <use x="127.246094" xlink:href="#DejaVuSans-48"/>
      </g>
     </g>
    </g>
    <g id="text_3">
     <!-- Angular Acceleration (rad/s) -->
     <g transform="translate(165.986562 335.860562)scale(0.1 -0.1)">
      <defs>
       <path d="M 34.1875 63.1875 
L 20.796875 26.90625 
L 47.609375 26.90625 
z
M 28.609375 72.90625 
L 39.796875 72.90625 
L 67.578125 0 
L 57.328125 0 
L 50.6875 18.703125 
L 17.828125 18.703125 
L 11.1875 0 
L 0.78125 0 
z
" id="DejaVuSans-65"/>
       <path d="M 54.890625 33.015625 
L 54.890625 0 
L 45.90625 0 
L 45.90625 32.71875 
Q 45.90625 40.484375 42.875 44.328125 
Q 39.84375 48.1875 33.796875 48.1875 
Q 26.515625 48.1875 22.3125 43.546875 
Q 18.109375 38.921875 18.109375 30.90625 
L 18.109375 0 
L 9.078125 0 
L 9.078125 54.6875 
L 18.109375 54.6875 
L 18.109375 46.1875 
Q 21.34375 51.125 25.703125 53.5625 
Q 30.078125 56 35.796875 56 
Q 45.21875 56 50.046875 50.171875 
Q 54.890625 44.34375 54.890625 33.015625 
z
" id="DejaVuSans-110"/>
       <path d="M 45.40625 27.984375 
Q 45.40625 37.75 41.375 43.109375 
Q 37.359375 48.484375 30.078125 48.484375 
Q 22.859375 48.484375 18.828125 43.109375 
Q 14.796875 37.75 14.796875 27.984375 
Q 14.796875 18.265625 18.828125 12.890625 
Q 22.859375 7.515625 30.078125 7.515625 
Q 37.359375 7.515625 41.375 12.890625 
Q 45.40625 18.265625 45.40625 27.984375 
z
M 54.390625 6.78125 
Q 54.390625 -7.171875 48.1875 -13.984375 
Q 42 -20.796875 29.203125 -20.796875 
Q 24.46875 -20.796875 20.265625 -20.09375 
Q 16.0625 -19.390625 12.109375 -17.921875 
L 12.109375 -9.1875 
Q 16.0625 -11.328125 19.921875 -12.34375 
Q 23.78125 -13.375 27.78125 -13.375 
Q 36.625 -13.375 41.015625 -8.765625 
Q 45.40625 -4.15625 45.40625 5.171875 
L 45.40625 9.625 
Q 42.625 4.78125 38.28125 2.390625 
Q 33.9375 0 27.875 0 
Q 17.828125 0 11.671875 7.65625 
Q 5.515625 15.328125 5.515625 27.984375 
Q 5.515625 40.671875 11.671875 48.328125 
Q 17.828125 56 27.875 56 
Q 33.9375 56 38.28125 53.609375 
Q 42.625 51.21875 45.40625 46.390625 
L 45.40625 54.6875 
L 54.390625 54.6875 
z
" id="DejaVuSans-103"/>
       <path d="M 8.5 21.578125 
L 8.5 54.6875 
L 17.484375 54.6875 
L 17.484375 21.921875 
Q 17.484375 14.15625 20.5 10.265625 
Q 23.53125 6.390625 29.59375 6.390625 
Q 36.859375 6.390625 41.078125 11.03125 
Q 45.3125 15.671875 45.3125 23.6875 
L 45.3125 54.6875 
L 54.296875 54.6875 
L 54.296875 0 
L 45.3125 0 
L 45.3125 8.40625 
Q 42.046875 3.421875 37.71875 1 
Q 33.40625 -1.421875 27.6875 -1.421875 
Q 18.265625 -1.421875 13.375 4.4375 
Q 8.5 10.296875 8.5 21.578125 
z
M 31.109375 56 
z
" id="DejaVuSans-117"/>
       <path d="M 9.421875 75.984375 
L 18.40625 75.984375 
L 18.40625 0 
L 9.421875 0 
z
" id="DejaVuSans-108"/>
       <path d="M 34.28125 27.484375 
Q 23.390625 27.484375 19.1875 25 
Q 14.984375 22.515625 14.984375 16.5 
Q 14.984375 11.71875 18.140625 8.90625 
Q 21.296875 6.109375 26.703125 6.109375 
Q 34.1875 6.109375 38.703125 11.40625 
Q 43.21875 16.703125 43.21875 25.484375 
L 43.21875 27.484375 
z
M 52.203125 31.203125 
L 52.203125 0 
L 43.21875 0 
L 43.21875 8.296875 
Q 40.140625 3.328125 35.546875 0.953125 
Q 30.953125 -1.421875 24.3125 -1.421875 
Q 15.921875 -1.421875 10.953125 3.296875 
Q 6 8.015625 6 15.921875 
Q 6 25.140625 12.171875 29.828125 
Q 18.359375 34.515625 30.609375 34.515625 
L 43.21875 34.515625 
L 43.21875 35.40625 
Q 43.21875 41.609375 39.140625 45 
Q 35.0625 48.390625 27.6875 48.390625 
Q 23 48.390625 18.546875 47.265625 
Q 14.109375 46.140625 10.015625 43.890625 
L 10.015625 52.203125 
Q 14.9375 54.109375 19.578125 55.046875 
Q 24.21875 56 28.609375 56 
Q 40.484375 56 46.34375 49.84375 
Q 52.203125 43.703125 52.203125 31.203125 
z
" id="DejaVuSans-97"/>
       <path d="M 41.109375 46.296875 
Q 39.59375 47.171875 37.8125 47.578125 
Q 36.03125 48 33.890625 48 
Q 26.265625 48 22.1875 43.046875 
Q 18.109375 38.09375 18.109375 28.8125 
L 18.109375 0 
L 9.078125 0 
L 9.078125 54.6875 
L 18.109375 54.6875 
L 18.109375 46.1875 
Q 20.953125 51.171875 25.484375 53.578125 
Q 30.03125 56 36.53125 56 
Q 37.453125 56 38.578125 55.875 
Q 39.703125 55.765625 41.0625 55.515625 
z
" id="DejaVuSans-114"/>
       <path id="DejaVuSans-32"/>
       <path d="M 48.78125 52.59375 
L 48.78125 44.1875 
Q 44.96875 46.296875 41.140625 47.34375 
Q 37.3125 48.390625 33.40625 48.390625 
Q 24.65625 48.390625 19.8125 42.84375 
Q 14.984375 37.3125 14.984375 27.296875 
Q 14.984375 17.28125 19.8125 11.734375 
Q 24.65625 6.203125 33.40625 6.203125 
Q 37.3125 6.203125 41.140625 7.25 
Q 44.96875 8.296875 48.78125 10.40625 
L 48.78125 2.09375 
Q 45.015625 0.34375 40.984375 -0.53125 
Q 36.96875 -1.421875 32.421875 -1.421875 
Q 20.0625 -1.421875 12.78125 6.34375 
Q 5.515625 14.109375 5.515625 27.296875 
Q 5.515625 40.671875 12.859375 48.328125 
Q 20.21875 56 33.015625 56 
Q 37.15625 56 41.109375 55.140625 
Q 45.0625 54.296875 48.78125 52.59375 
z
" id="DejaVuSans-99"/>
       <path d="M 56.203125 29.59375 
L 56.203125 25.203125 
L 14.890625 25.203125 
Q 15.484375 15.921875 20.484375 11.0625 
Q 25.484375 6.203125 34.421875 6.203125 
Q 39.59375 6.203125 44.453125 7.46875 
Q 49.3125 8.734375 54.109375 11.28125 
L 54.109375 2.78125 
Q 49.265625 0.734375 44.1875 -0.34375 
Q 39.109375 -1.421875 33.890625 -1.421875 
Q 20.796875 -1.421875 13.15625 6.1875 
Q 5.515625 13.8125 5.515625 26.8125 
Q 5.515625 40.234375 12.765625 48.109375 
Q 20.015625 56 32.328125 56 
Q 43.359375 56 49.78125 48.890625 
Q 56.203125 41.796875 56.203125 29.59375 
z
M 47.21875 32.234375 
Q 47.125 39.59375 43.09375 43.984375 
Q 39.0625 48.390625 32.421875 48.390625 
Q 24.90625 48.390625 20.390625 44.140625 
Q 15.875 39.890625 15.1875 32.171875 
z
" id="DejaVuSans-101"/>
       <path d="M 18.3125 70.21875 
L 18.3125 54.6875 
L 36.8125 54.6875 
L 36.8125 47.703125 
L 18.3125 47.703125 
L 18.3125 18.015625 
Q 18.3125 11.328125 20.140625 9.421875 
Q 21.96875 7.515625 27.59375 7.515625 
L 36.8125 7.515625 
L 36.8125 0 
L 27.59375 0 
Q 17.1875 0 13.234375 3.875 
Q 9.28125 7.765625 9.28125 18.015625 
L 9.28125 47.703125 
L 2.6875 47.703125 
L 2.6875 54.6875 
L 9.28125 54.6875 
L 9.28125 70.21875 
z
" id="DejaVuSans-116"/>
       <path d="M 9.421875 54.6875 
L 18.40625 54.6875 
L 18.40625 0 
L 9.421875 0 
z
M 9.421875 75.984375 
L 18.40625 75.984375 
L 18.40625 64.59375 
L 9.421875 64.59375 
z
" id="DejaVuSans-105"/>
       <path d="M 30.609375 48.390625 
Q 23.390625 48.390625 19.1875 42.75 
Q 14.984375 37.109375 14.984375 27.296875 
Q 14.984375 17.484375 19.15625 11.84375 
Q 23.34375 6.203125 30.609375 6.203125 
Q 37.796875 6.203125 41.984375 11.859375 
Q 46.1875 17.53125 46.1875 27.296875 
Q 46.1875 37.015625 41.984375 42.703125 
Q 37.796875 48.390625 30.609375 48.390625 
z
M 30.609375 56 
Q 42.328125 56 49.015625 48.375 
Q 55.71875 40.765625 55.71875 27.296875 
Q 55.71875 13.875 49.015625 6.21875 
Q 42.328125 -1.421875 30.609375 -1.421875 
Q 18.84375 -1.421875 12.171875 6.21875 
Q 5.515625 13.875 5.515625 27.296875 
Q 5.515625 40.765625 12.171875 48.375 
Q 18.84375 56 30.609375 56 
z
" id="DejaVuSans-111"/>
       <path d="M 31 75.875 
Q 24.46875 64.65625 21.28125 53.65625 
Q 18.109375 42.671875 18.109375 31.390625 
Q 18.109375 20.125 21.3125 9.0625 
Q 24.515625 -2 31 -13.1875 
L 23.1875 -13.1875 
Q 15.875 -1.703125 12.234375 9.375 
Q 8.59375 20.453125 8.59375 31.390625 
Q 8.59375 42.28125 12.203125 53.3125 
Q 15.828125 64.359375 23.1875 75.875 
z
" id="DejaVuSans-40"/>
       <path d="M 45.40625 46.390625 
L 45.40625 75.984375 
L 54.390625 75.984375 
L 54.390625 0 
L 45.40625 0 
L 45.40625 8.203125 
Q 42.578125 3.328125 38.25 0.953125 
Q 33.9375 -1.421875 27.875 -1.421875 
Q 17.96875 -1.421875 11.734375 6.484375 
Q 5.515625 14.40625 5.515625 27.296875 
Q 5.515625 40.1875 11.734375 48.09375 
Q 17.96875 56 27.875 56 
Q 33.9375 56 38.25 53.625 
Q 42.578125 51.265625 45.40625 46.390625 
z
M 14.796875 27.296875 
Q 14.796875 17.390625 18.875 11.75 
Q 22.953125 6.109375 30.078125 6.109375 
Q 37.203125 6.109375 41.296875 11.75 
Q 45.40625 17.390625 45.40625 27.296875 
Q 45.40625 37.203125 41.296875 42.84375 
Q 37.203125 48.484375 30.078125 48.484375 
Q 22.953125 48.484375 18.875 42.84375 
Q 14.796875 37.203125 14.796875 27.296875 
z
" id="DejaVuSans-100"/>
       <path d="M 25.390625 72.90625 
L 33.6875 72.90625 
L 8.296875 -9.28125 
L 0 -9.28125 
z
" id="DejaVuSans-47"/>
       <path d="M 44.28125 53.078125 
L 44.28125 44.578125 
Q 40.484375 46.53125 36.375 47.5 
Q 32.28125 48.484375 27.875 48.484375 
Q 21.1875 48.484375 17.84375 46.4375 
Q 14.5 44.390625 14.5 40.28125 
Q 14.5 37.15625 16.890625 35.375 
Q 19.28125 33.59375 26.515625 31.984375 
L 29.59375 31.296875 
Q 39.15625 29.25 43.1875 25.515625 
Q 47.21875 21.78125 47.21875 15.09375 
Q 47.21875 7.46875 41.1875 3.015625 
Q 35.15625 -1.421875 24.609375 -1.421875 
Q 20.21875 -1.421875 15.453125 -0.5625 
Q 10.6875 0.296875 5.421875 2 
L 5.421875 11.28125 
Q 10.40625 8.6875 15.234375 7.390625 
Q 20.0625 6.109375 24.8125 6.109375 
Q 31.15625 6.109375 34.5625 8.28125 
Q 37.984375 10.453125 37.984375 14.40625 
Q 37.984375 18.0625 35.515625 20.015625 
Q 33.0625 21.96875 24.703125 23.78125 
L 21.578125 24.515625 
Q 13.234375 26.265625 9.515625 29.90625 
Q 5.8125 33.546875 5.8125 39.890625 
Q 5.8125 47.609375 11.28125 51.796875 
Q 16.75 56 26.8125 56 
Q 31.78125 56 36.171875 55.265625 
Q 40.578125 54.546875 44.28125 53.078125 
z
" id="DejaVuSans-115"/>
       <path d="M 8.015625 75.875 
L 15.828125 75.875 
Q 23.140625 64.359375 26.78125 53.3125 
Q 30.421875 42.28125 30.421875 31.390625 
Q 30.421875 20.453125 26.78125 9.375 
Q 23.140625 -1.703125 15.828125 -13.1875 
L 8.015625 -13.1875 
Q 14.5 -2 17.703125 9.0625 
Q 20.90625 20.125 20.90625 31.390625 
Q 20.90625 42.671875 17.703125 53.65625 
Q 14.5 64.65625 8.015625 75.875 
z
" id="DejaVuSans-41"/>
      </defs>
      <use xlink:href="#DejaVuSans-65"/>
      <use x="68.408203" xlink:href="#DejaVuSans-110"/>
      <use x="131.787109" xlink:href="#DejaVuSans-103"/>
      <use x="195.263672" xlink:href="#DejaVuSans-117"/>
      <use x="258.642578" xlink:href="#DejaVuSans-108"/>
      <use x="286.425781" xlink:href="#DejaVuSans-97"/>
      <use x="347.705078" xlink:href="#DejaVuSans-114"/>
      <use x="388.818359" xlink:href="#DejaVuSans-32"/>
      <use x="420.605469" xlink:href="#DejaVuSans-65"/>
      <use x="487.263672" xlink:href="#DejaVuSans-99"/>
      <use x="542.244141" xlink:href="#DejaVuSans-99"/>
      <use x="597.224609" xlink:href="#DejaVuSans-101"/>
      <use x="658.748047" xlink:href="#DejaVuSans-108"/>
      <use x="686.53125" xlink:href="#DejaVuSans-101"/>
      <use x="748.054688" xlink:href="#DejaVuSans-114"/>
      <use x="789.167969" xlink:href="#DejaVuSans-97"/>
      <use x="850.447266" xlink:href="#DejaVuSans-116"/>
      <use x="889.65625" xlink:href="#DejaVuSans-105"/>
      <use x="917.439453" xlink:href="#DejaVuSans-111"/>
      <use x="978.621094" xlink:href="#DejaVuSans-110"/>
      <use x="1042" xlink:href="#DejaVuSans-32"/>
      <use x="1073.787109" xlink:href="#DejaVuSans-40"/>
      <use x="1112.800781" xlink:href="#DejaVuSans-114"/>
      <use x="1153.914062" xlink:href="#DejaVuSans-97"/>
      <use x="1215.193359" xlink:href="#DejaVuSans-100"/>
      <use x="1278.669922" xlink:href="#DejaVuSans-47"/>
      <use x="1312.361328" xlink:href="#DejaVuSans-115"/>
      <use x="1364.460938" xlink:href="#DejaVuSans-41"/>
     </g>
    </g>
   </g>
   <g id="matplotlib.axis_2">
    <g id="ytick_1">
     <g id="line2d_3">
      <defs>
       <path d="M 0 0 
L -3.5 0 
" id="m663a107192" style="stroke:#000000;stroke-width:0.8;"/>
      </defs>
      <g>
       <use style="stroke:#000000;stroke-width:0.8;" x="57.6" xlink:href="#m663a107192" y="307.584"/>
      </g>
     </g>
     <g id="text_4">
      <!-- 0 -->
      <g transform="translate(44.2375 311.383219)scale(0.1 -0.1)">
       <use xlink:href="#DejaVuSans-48"/>
      </g>
     </g>
    </g>
    <g id="ytick_2">
     <g id="line2d_4">
      <g>
       <use style="stroke:#000000;stroke-width:0.8;" x="57.6" xlink:href="#m663a107192" y="41.472"/>
      </g>
     </g>
     <g id="text_5">
      <!-- 5 -->
      <g transform="translate(44.2375 45.271219)scale(0.1 -0.1)">
       <use xlink:href="#DejaVuSans-53"/>
      </g>
     </g>
    </g>
    <g id="text_6">
     <!--  -->
     <g transform="translate(15.762187 174.528)rotate(-90)scale(0.1 -0.1)"/>
     <!--  Angular Velocity (rad/s²)  -->
     <g transform="translate(26.96 238.429563)rotate(-90)scale(0.1 -0.1)">
      <defs>
       <path d="M 28.609375 0 
L 0.78125 72.90625 
L 11.078125 72.90625 
L 34.1875 11.53125 
L 57.328125 72.90625 
L 67.578125 72.90625 
L 39.796875 0 
z
" id="DejaVuSans-86"/>
       <path d="M 32.171875 -5.078125 
Q 28.375 -14.84375 24.75 -17.8125 
Q 21.140625 -20.796875 15.09375 -20.796875 
L 7.90625 -20.796875 
L 7.90625 -13.28125 
L 13.1875 -13.28125 
Q 16.890625 -13.28125 18.9375 -11.515625 
Q 21 -9.765625 23.484375 -3.21875 
L 25.09375 0.875 
L 2.984375 54.6875 
L 12.5 54.6875 
L 29.59375 11.921875 
L 46.6875 54.6875 
L 56.203125 54.6875 
z
" id="DejaVuSans-121"/>
       <path d="M 13.09375 38.1875 
L 33.796875 38.1875 
L 33.796875 32.625 
L 4.59375 32.625 
L 4.59375 37.984375 
Q 6.25 39.5 9.328125 42.234375 
Q 26.125 57.125 26.125 61.71875 
Q 26.125 64.9375 23.578125 66.90625 
Q 21.046875 68.890625 16.890625 68.890625 
Q 14.359375 68.890625 11.375 68.03125 
Q 8.40625 67.1875 4.890625 65.484375 
L 4.890625 71.484375 
Q 8.640625 72.859375 11.890625 73.53125 
Q 15.140625 74.21875 17.921875 74.21875 
Q 25 74.21875 29.25 71 
Q 33.5 67.78125 33.5 62.5 
Q 33.5 55.71875 17.328125 41.84375 
Q 14.59375 39.5 13.09375 38.1875 
z
" id="DejaVuSans-178"/>
      </defs>
      <use xlink:href="#DejaVuSans-32"/>
      <use x="31.787109" xlink:href="#DejaVuSans-65"/>
      <use x="100.195312" xlink:href="#DejaVuSans-110"/>
      <use x="163.574219" xlink:href="#DejaVuSans-103"/>
      <use x="227.050781" xlink:href="#DejaVuSans-117"/>
      <use x="290.429688" xlink:href="#DejaVuSans-108"/>
      <use x="318.212891" xlink:href="#DejaVuSans-97"/>
      <use x="379.492188" xlink:href="#DejaVuSans-114"/>
      <use x="420.605469" xlink:href="#DejaVuSans-32"/>
      <use x="452.392578" xlink:href="#DejaVuSans-86"/>
      <use x="513.050781" xlink:href="#DejaVuSans-101"/>
      <use x="574.574219" xlink:href="#DejaVuSans-108"/>
      <use x="602.357422" xlink:href="#DejaVuSans-111"/>
      <use x="663.539062" xlink:href="#DejaVuSans-99"/>
      <use x="718.519531" xlink:href="#DejaVuSans-105"/>
      <use x="746.302734" xlink:href="#DejaVuSans-116"/>
      <use x="785.511719" xlink:href="#DejaVuSans-121"/>
      <use x="844.691406" xlink:href="#DejaVuSans-32"/>
      <use x="876.478516" xlink:href="#DejaVuSans-40"/>
      <use x="915.492188" xlink:href="#DejaVuSans-114"/>
      <use x="956.605469" xlink:href="#DejaVuSans-97"/>
      <use x="1017.884766" xlink:href="#DejaVuSans-100"/>
      <use x="1081.361328" xlink:href="#DejaVuSans-47"/>
      <use x="1115.052734" xlink:href="#DejaVuSans-115"/>
      <use x="1167.152344" xlink:href="#DejaVuSans-178"/>
      <use x="1207.240234" xlink:href="#DejaVuSans-41"/>
      <use x="1246.253906" xlink:href="#DejaVuSans-32"/>
     </g>
     <!--  -->
     <g transform="translate(38.157812 174.528)rotate(-90)scale(0.1 -0.1)"/>
    </g>
   </g>
   <g id="line2d_5">
    <path clip-path="url(#p5a0aefa31f)" d="M 116.33523 305.104003 
L 114.297176 302.344119 
L 111.685415 299.247387 
L 109.120145 296.607604 
L 106.695245 294.41155 
L 104.041269 292.291728 
L 101.15195 290.261614 
L 98.033593 288.334682 
L 94.693173 286.524405 
L 91.137662 284.843498 
L 87.374029 283.301111 
L 83.409245 281.904877 
L 79.251934 280.662405 
L 74.924483 279.581306 
L 70.460245 278.669187 
L 65.893281 277.933817 
L 61.257651 277.385585 
L 57.833168 277.077874 
L 58.612585 277.03713 
L 63.28346 276.901123 
L 67.155516 276.955937 
L 71.757672 277.242145 
L 76.291353 277.776696 
L 80.734591 278.571178 
L 85.065416 279.624054 
L 89.261858 280.923785 
L 93.30193 282.458454 
L 97.164852 284.216144 
L 100.834099 286.184937 
L 104.294136 288.352915 
L 107.529428 290.705965 
L 110.524439 293.220548 
L 113.263633 295.869959 
L 115.729974 298.627475 
L 117.896034 301.466374 
L 119.729503 304.359934 
L 120.974571 306.793891 
L 121.19806 307.281627 
L 121.39948 307.398261 
L 122.113893 305.445365 
L 122.639785 303.49365 
L 122.967578 301.546445 
L 123.087751 299.607082 
L 122.993173 297.678889 
L 122.684729 295.765198 
L 122.167237 293.869336 
L 121.445729 291.994636 
L 120.525234 290.144427 
L 119.410784 288.322071 
L 118.10741 286.530738 
L 116.620143 284.773363 
L 114.954013 283.05287 
L 113.114097 281.372183 
L 110.584774 279.330305 
L 107.227655 276.977821 
L 103.565605 274.739565 
L 99.640431 272.625754 
L 95.493943 270.653007 
L 91.167947 268.844602 
L 86.704243 267.22423 
L 82.140394 265.815583 
L 77.501059 264.642352 
L 72.807946 263.728227 
L 68.082764 263.093242 
L 63.347219 262.738069 
L 58.623016 262.655594 
L 57.838782 262.671527 
L 58.927481 262.718011 
L 62.821451 262.957409 
L 67.438472 263.483297 
L 71.977898 264.25794 
L 76.421132 265.273543 
L 80.74958 266.515308 
L 84.944647 267.963124 
L 89.642995 269.887825 
L 93.478623 271.712135 
L 96.516244 273.339797 
L 99.932716 275.408739 
L 103.070278 277.582845 
L 105.893628 279.847043 
L 108.367463 282.18815 
L 110.45942 284.592987 
L 111.899894 286.636742 
L 112.866205 288.291334 
L 113.666924 289.959606 
L 114.305422 291.637704 
L 114.78507 293.322155 
L 115.109238 295.009694 
L 115.281298 296.697045 
L 115.292123 298.801218 
L 115.004981 301.309951 
L 114.425171 303.790636 
L 113.589603 306.23222 
L 113.084724 307.43413 
L 112.908791 307.335222 
L 111.514493 304.59928 
L 109.919332 301.963612 
L 107.918221 299.110591 
L 105.541458 296.149689 
L 103.132629 293.498241 
L 100.29427 290.737337 
L 96.917621 287.770516 
L 93.388982 284.641659 
L 92.976582 283.993092 
L 92.938767 283.56721 
L 93.09735 283.234535 
L 93.650061 282.778303 
L 94.601065 282.302828 
L 97.01204 281.435491 
L 113.615366 275.921528 
L 120.737299 273.12924 
L 126.384626 270.709124 
L 131.561458 268.307871 
L 137.660119 265.215041 
L 143.077549 262.187814 
L 147.726846 259.348719 
L 151.576197 256.805537 
L 156.130926 253.525559 
L 160.580237 249.992899 
L 164.88631 246.202518 
L 169.011324 242.164053 
L 172.91746 237.89178 
L 175.974619 234.160384 
L 178.284716 231.073516 
L 180.466529 227.898624 
L 182.515603 224.639946 
L 184.427486 221.301722 
L 186.197726 217.888405 
L 187.821869 214.40617 
L 189.295464 210.862782 
L 190.614057 207.266144 
L 191.773204 203.624163 
L 192.768561 199.944742 
L 193.595492 196.235786 
L 194.249269 192.5052 
L 194.725201 188.760888 
L 195.0186 185.010754 
L 195.124777 181.262453 
L 195.039041 177.522768 
L 194.756704 173.798138 
L 194.273078 170.09499 
L 193.583463 166.419754 
L 192.684042 162.77886 
L 191.576286 159.178735 
L 190.264909 155.625809 
L 188.754812 152.126511 
L 187.050895 148.687267 
L 185.158059 145.314115 
L 183.081203 142.011071 
L 180.825228 138.780902 
L 178.395035 135.626323 
L 175.795541 132.550045 
L 173.032239 129.554783 
L 170.112926 126.643248 
L 167.047018 123.818153 
L 163.844056 121.082212 
L 160.513583 118.438128 
L 156.189027 115.262964 
L 150.778064 111.657993 
L 145.160708 108.281767 
L 139.369056 105.14352 
L 133.43195 102.252488 
L 127.374635 99.617908 
L 121.222163 97.249033 
L 114.999586 95.152782 
L 108.731953 93.326887 
L 102.444321 91.767048 
L 96.161345 90.468962 
L 89.900986 89.428326 
L 83.676701 88.64084 
L 77.501844 88.101969 
L 71.38977 87.80441 
L 65.353835 87.738701 
L 58.427274 87.945266 
L 57.752811 87.995239 
L 64.517738 88.528865 
L 70.191518 89.199306 
L 75.737867 90.058645 
L 81.146227 91.098439 
L 86.406037 92.312022 
L 91.5066 93.692912 
L 96.436432 95.234628 
L 101.189383 96.930688 
L 105.762138 98.774608 
L 110.151401 100.759714 
L 114.353882 102.879649 
L 118.366285 105.128532 
L 122.185621 107.500498 
L 125.812343 109.989677 
L 129.250162 112.590204 
L 132.503034 115.296221 
L 135.574916 118.102735 
L 138.469763 121.006749 
L 141.191536 124.00562 
L 143.744327 127.096705 
L 146.13119 130.27736 
L 148.354218 133.544943 
L 150.415475 136.896267 
L 152.317025 140.324965 
L 154.060931 143.823069 
L 155.901287 147.980509 
L 157.749763 152.818867 
L 159.337284 157.730797 
L 160.672196 162.69817 
L 161.762846 167.707312 
L 162.617667 172.746137 
L 163.243811 177.802562 
L 163.644648 182.864502 
L 163.828151 188.551186 
L 163.759798 193.587808 
L 163.475974 198.596977 
L 162.990292 203.568832 
L 162.230034 209.105768 
L 161.152171 215.173425 
L 159.732073 221.734057 
L 158.115162 228.165727 
L 155.994133 235.582206 
L 153.699693 242.787191 
L 150.901484 250.817864 
L 147.809572 259.03462 
L 143.895691 268.826778 
L 139.210449 279.972716 
L 134.363953 290.966613 
L 129.706368 300.981257 
L 126.52641 307.377298 
L 126.32228 307.398718 
L 123.593343 302.379133 
L 120.904118 297.890231 
L 118.013881 293.551195 
L 115.161467 289.716412 
L 112.668929 286.687944 
L 109.713442 283.449728 
L 106.549468 280.354152 
L 103.163277 277.415745 
L 99.913188 274.925432 
L 96.86103 272.847459 
L 93.660212 270.910586 
L 90.318207 269.126763 
L 86.842493 267.505528 
L 83.240534 266.054702 
L 79.519577 264.782048 
L 75.687405 263.69533 
L 71.752166 262.802282 
L 67.722016 262.110325 
L 63.605196 261.626645 
L 59.942581 261.378189 
L 57.830189 261.31309 
L 66.953389 261.724725 
L 71.202336 262.275343 
L 75.410399 263.045375 
L 80.073288 264.169203 
L 84.13893 265.388562 
L 87.623315 266.621606 
L 91.506618 268.220717 
L 95.27088 270.016704 
L 98.901526 272.005644 
L 102.384221 274.183461 
L 105.704633 276.541113 
L 108.848435 279.062904 
L 111.805764 281.732607 
L 114.918089 284.893506 
L 117.509847 287.823831 
L 120.244677 291.240565 
L 123.076461 295.17217 
L 125.709926 299.227645 
L 128.393554 303.810496 
L 130.437746 307.530195 
L 132.966675 302.340186 
L 135.686456 296.197522 
L 139.147686 287.749274 
L 143.781519 275.820361 
L 148.807427 262.243256 
L 154.73716 245.568538 
L 157.318321 237.819368 
L 159.025158 232.099484 
L 160.395227 226.827486 
L 161.551809 221.444695 
L 162.372888 216.575553 
L 162.912005 212.254823 
L 163.296567 207.25221 
L 163.412338 202.18727 
L 163.242366 197.066177 
L 162.784759 191.895107 
L 162.038865 186.681357 
L 161.004027 181.447168 
L 159.679635 176.226183 
L 158.070266 171.05241 
L 156.194018 165.959854 
L 154.071704 160.982049 
L 151.724142 156.147035 
L 149.172041 151.479015 
L 146.430831 147.002096 
L 143.508353 142.740384 
L 140.411874 138.716064 
L 137.148656 134.934453 
L 133.726153 131.391774 
L 130.167516 128.084129 
L 126.072269 124.640888 
L 121.965028 121.478901 
L 116.622166 117.672803 
L 107.764156 111.721852 
L 101.285355 107.267003 
L 97.180656 104.148464 
L 93.587592 101.156469 
L 90.542541 98.309622 
L 87.327822 95.367369 
L 83.955906 92.669945 
L 79.21998 89.187862 
L 75.513194 86.741452 
L 72.044331 84.739433 
L 68.560269 83.037503 
L 65.58303 81.825187 
L 62.334622 80.756845 
L 59.326225 79.981277 
L 57.745817 79.648156 
L 58.538977 79.450681 
L 62.522335 78.922363 
L 65.536969 78.706281 
L 70.007424 78.650078 
L 74.061473 78.82023 
L 78.321443 79.192518 
L 82.773584 79.765371 
L 87.389014 80.537221 
L 92.137424 81.506477 
L 96.98851 82.672206 
L 101.911963 84.036624 
L 106.877498 85.602807 
L 111.854557 87.373832 
L 116.808195 89.352774 
L 120.892762 91.159971 
L 125.707298 93.527877 
L 130.392906 96.10806 
L 134.912337 98.894288 
L 139.228474 101.879921 
L 143.31584 105.058317 
L 147.176904 108.422834 
L 150.81922 111.966832 
L 154.250351 115.683236 
L 157.477858 119.558797 
L 160.509303 123.576167 
L 163.807604 128.420546 
L 166.450333 132.685194 
L 168.934785 137.036516 
L 171.652347 142.198907 
L 174.539978 148.18129 
L 177.548814 154.965315 
L 180.965351 163.250036 
L 187.854543 180.145225 
L 190.713345 186.574569 
L 194.748937 195.041585 
L 200.060005 205.550032 
L 210.193773 224.991294 
L 216.099295 235.787363 
L 221.797678 245.709169 
L 236.675924 271.261488 
L 243.824888 284.053795 
L 249.210089 294.062904 
L 253.876078 303.181999 
L 255.570684 306.646918 
L 256.130215 307.362501 
L 259.892959 299.16148 
L 262.411763 293.215938 
L 265.197917 285.972972 
L 267.291976 279.841278 
L 268.80555 274.872444 
L 270.157853 269.843441 
L 271.335357 264.752109 
L 272.324534 259.599076 
L 273.111857 254.388748 
L 273.568793 250.447904 
L 273.970743 245.149089 
L 274.133648 239.806624 
L 274.048557 234.42547 
L 273.724225 229.01059 
L 272.996067 222.201418 
L 272.182428 216.728954 
L 271.17273 211.239015 
L 269.980264 205.738549 
L 268.618321 200.237306 
L 267.100189 194.745565 
L 265.007078 187.908895 
L 262.227966 179.774711 
L 259.163914 171.748658 
L 256.376185 165.170298 
L 253.991694 159.990914 
L 251.461555 154.897246 
L 248.78069 149.897224 
L 245.944017 144.998778 
L 242.946459 140.209861 
L 239.782957 135.538425 
L 236.45043 130.99242 
L 232.95285 126.579801 
L 229.29706 122.308518 
L 225.489973 118.186524 
L 221.538504 114.221766 
L 217.449565 110.420644 
L 213.230071 106.780897 
L 208.886934 103.295504 
L 204.42707 99.957292 
L 199.857423 96.759088 
L 195.18625 93.693718 
L 190.425974 90.75401 
L 184.373835 87.241737 
L 176.993502 83.256109 
L 168.28541 78.892186 
L 160.794117 75.392241 
L 153.327879 72.128642 
L 145.933563 69.112818 
L 138.647575 66.356199 
L 131.501789 63.870214 
L 124.528104 61.66603 
L 117.758419 59.747135 
L 111.224635 58.105335 
L 104.958651 56.731131 
L 98.98696 55.615022 
L 93.307122 54.747511 
L 87.904619 54.119095 
L 82.764802 53.71937 
L 77.873018 53.531955 
L 73.214615 53.537219 
L 68.774809 53.71546 
L 63.85956 54.113931 
L 58.620816 54.787073 
L 57.822681 54.986071 
L 62.516559 55.886279 
L 66.737688 56.93636 
L 70.453822 58.114873 
L 73.651811 59.400376 
L 76.344255 60.771428 
L 78.545672 62.206958 
L 80.07691 63.501269 
L 81.109713 64.62883 
L 81.891272 65.765269 
L 82.437928 66.902859 
L 82.767414 68.033879 
L 82.897465 69.151269 
L 82.845815 70.250232 
L 82.581559 71.50395 
L 82.039255 72.890446 
L 81.15983 74.379438 
L 80.166631 75.630174 
L 78.996313 76.80346 
L 77.497024 78.023706 
L 75.640828 79.243791 
L 73.421017 80.407057 
L 71.290784 81.29518 
L 68.878122 82.086034 
L 66.218371 82.726332 
L 63.35453 83.161393 
L 60.772275 83.335552 
L 58.295148 83.303876 
L 57.69712 83.265967 
L 58.283697 83.196129 
L 60.676486 82.832281 
L 62.653401 82.332709 
L 64.374682 81.700996 
L 65.823357 80.960975 
L 66.899082 80.202604 
L 67.776553 79.300985 
L 68.290969 78.418899 
L 68.496807 77.669717 
L 68.483035 76.823613 
L 68.204495 75.979577 
L 67.653268 75.154441 
L 66.821846 74.363178 
L 65.570993 73.546385 
L 64.09877 72.864685 
L 62.26036 72.253638 
L 60.010843 71.730981 
L 57.601868 71.353106 
L 58.185594 71.282884 
L 61.755754 70.997232 
L 65.494935 70.901142 
L 69.707749 70.985279 
L 74.388973 71.272521 
L 79.510213 71.785723 
L 85.038438 72.552641 
L 90.33283 73.500142 
L 95.907783 74.741227 
L 100.409061 75.930881 
L 105.70652 77.565342 
L 111.136498 79.5121 
L 116.668705 81.781894 
L 122.272558 84.384204 
L 127.209069 86.944178 
L 131.446832 89.349362 
L 135.675929 91.953797 
L 139.882267 94.75362 
L 144.051751 97.743328 
L 148.169315 100.917412 
L 152.210715 104.270366 
L 156.144757 107.796682 
L 159.320674 110.861462 
L 162.976486 114.690459 
L 166.435656 118.672672 
L 169.666672 122.798335 
L 172.64065 127.057684 
L 175.341804 131.440954 
L 177.759557 135.938381 
L 179.883389 140.540195 
L 181.70278 145.236246 
L 183.20721 150.015682 
L 184.208181 154.055247 
L 184.990119 158.137058 
L 185.631364 163.085481 
L 185.968344 168.077257 
L 186.015686 173.101127 
L 185.788012 178.1402 
L 185.299947 183.172072 
L 184.56602 188.174033 
L 183.600361 193.123377 
L 182.199692 198.7994 
L 180.788249 203.556582 
L 179.197461 208.193072 
L 177.444069 212.699009 
L 175.544812 217.066553 
L 173.51612 221.287868 
L 171.008358 226.01973 
L 167.984586 231.1524 
L 164.83149 235.984372 
L 161.17742 241.0823 
L 157.463265 245.86391 
L 152.53009 251.802388 
L 141.779727 264.566021 
L 138.431165 268.982703 
L 135.499132 273.248773 
L 133.39015 276.662286 
L 131.338102 280.40526 
L 129.1722 284.875045 
L 121.374417 301.694242 
L 119.151806 305.679329 
L 118.1782 307.277198 
L 117.924542 307.491783 
L 116.611784 305.500624 
L 116.611784 305.500624 
" style="fill:none;stroke:#087f23;stroke-linecap:square;stroke-width:1.5;"/>
   </g>
   <g id="patch_3">
    <path d="M 57.6 307.584 
L 57.6 41.472 
" style="fill:none;stroke:#000000;stroke-linecap:square;stroke-linejoin:miter;stroke-width:0.8;"/>
   </g>
   <g id="patch_4">
    <path d="M 414.72 307.584 
L 414.72 41.472 
" style="fill:none;stroke:#000000;stroke-linecap:square;stroke-linejoin:miter;stroke-width:0.8;"/>
   </g>
   <g id="patch_5">
    <path d="M 57.6 307.584 
L 414.72 307.584 
" style="fill:none;stroke:#000000;stroke-linecap:square;stroke-linejoin:miter;stroke-width:0.8;"/>
   </g>
   <g id="patch_6">
    <path d="M 57.6 41.472 
L 414.72 41.472 
" style="fill:none;stroke:#000000;stroke-linecap:square;stroke-linejoin:miter;stroke-width:0.8;"/>
   </g>
   <g id="text_7">
    <!--  -->
    <g transform="translate(236.16 8.59725)scale(0.12 -0.12)"/>
    <!--  Downhill — Knee  -->
    <g transform="translate(181.607812 22.034625)scale(0.12 -0.12)">
     <defs>
      <path d="M 19.671875 64.796875 
L 19.671875 8.109375 
L 31.59375 8.109375 
Q 46.6875 8.109375 53.6875 14.9375 
Q 60.6875 21.78125 60.6875 36.53125 
Q 60.6875 51.171875 53.6875 57.984375 
Q 46.6875 64.796875 31.59375 64.796875 
z
M 9.8125 72.90625 
L 30.078125 72.90625 
Q 51.265625 72.90625 61.171875 64.09375 
Q 71.09375 55.28125 71.09375 36.53125 
Q 71.09375 17.671875 61.125 8.828125 
Q 51.171875 0 30.078125 0 
L 9.8125 0 
z
" id="DejaVuSans-68"/>
      <path d="M 4.203125 54.6875 
L 13.1875 54.6875 
L 24.421875 12.015625 
L 35.59375 54.6875 
L 46.1875 54.6875 
L 57.421875 12.015625 
L 68.609375 54.6875 
L 77.59375 54.6875 
L 63.28125 0 
L 52.6875 0 
L 40.921875 44.828125 
L 29.109375 0 
L 18.5 0 
z
" id="DejaVuSans-119"/>
      <path d="M 54.890625 33.015625 
L 54.890625 0 
L 45.90625 0 
L 45.90625 32.71875 
Q 45.90625 40.484375 42.875 44.328125 
Q 39.84375 48.1875 33.796875 48.1875 
Q 26.515625 48.1875 22.3125 43.546875 
Q 18.109375 38.921875 18.109375 30.90625 
L 18.109375 0 
L 9.078125 0 
L 9.078125 75.984375 
L 18.109375 75.984375 
L 18.109375 46.1875 
Q 21.34375 51.125 25.703125 53.5625 
Q 30.078125 56 35.796875 56 
Q 45.21875 56 50.046875 50.171875 
Q 54.890625 44.34375 54.890625 33.015625 
z
" id="DejaVuSans-104"/>
      <path d="M 4.890625 30.90625 
L 95.125 30.90625 
L 95.125 23.875 
L 4.890625 23.875 
z
" id="DejaVuSans-8212"/>
      <path d="M 9.8125 72.90625 
L 19.671875 72.90625 
L 19.671875 42.09375 
L 52.390625 72.90625 
L 65.09375 72.90625 
L 28.90625 38.921875 
L 67.671875 0 
L 54.6875 0 
L 19.671875 35.109375 
L 19.671875 0 
L 9.8125 0 
z
" id="DejaVuSans-75"/>
     </defs>
     <use xlink:href="#DejaVuSans-32"/>
     <use x="31.787109" xlink:href="#DejaVuSans-68"/>
     <use x="108.789062" xlink:href="#DejaVuSans-111"/>
     <use x="169.970703" xlink:href="#DejaVuSans-119"/>
     <use x="251.757812" xlink:href="#DejaVuSans-110"/>
     <use x="315.136719" xlink:href="#DejaVuSans-104"/>
     <use x="378.515625" xlink:href="#DejaVuSans-105"/>
     <use x="406.298828" xlink:href="#DejaVuSans-108"/>
     <use x="434.082031" xlink:href="#DejaVuSans-108"/>
     <use x="461.865234" xlink:href="#DejaVuSans-32"/>
     <use x="493.652344" xlink:href="#DejaVuSans-8212"/>
     <use x="593.652344" xlink:href="#DejaVuSans-32"/>
     <use x="625.439453" xlink:href="#DejaVuSans-75"/>
     <use x="691.015625" xlink:href="#DejaVuSans-110"/>
     <use x="754.394531" xlink:href="#DejaVuSans-101"/>
     <use x="815.917969" xlink:href="#DejaVuSans-101"/>
     <use x="877.441406" xlink:href="#DejaVuSans-32"/>
    </g>
    <!--  -->
    <g transform="translate(236.16 35.472)scale(0.12 -0.12)"/>
   </g>
  </g>
 </g>
 <defs>
  <clipPath id="p5a0aefa31f">
   <rect height="266.112" width="357.12" x="57.6" y="41.472"/>
  </clipPath>
 </defs>
</svg>
